<svg width="24" height="24" viewBox="0 0 24 24" fill="none" xmlns="http://www.w3.org/2000/svg">
<path d="M18.8333 19C19.4522 19 20.0457 19.2459 20.4833 19.6835C20.9208 20.121 21.1667 20.7145 21.1667 21.3334C21.1667 21.9522 20.9208 22.5457 20.4833 22.9833C20.0457 23.4209 19.4522 23.6667 18.8333 23.6667C17.5383 23.6667 16.5 22.6167 16.5 21.3334C16.5 20.0384 17.5383 19 18.8333 19ZM0.166672 1.50004C0.166672 0.855709 0.689006 0.333374 1.33334 0.333374H3.98167L5.07834 2.66671H22.3333C22.6428 2.66671 22.9395 2.78962 23.1583 3.00842C23.3771 3.22721 23.5 3.52396 23.5 3.83337C23.5 4.03171 23.4417 4.23004 23.36 4.41671L19.1833 11.965C18.7867 12.6767 18.0167 13.1667 17.1417 13.1667H8.45001L7.40001 15.0684L7.36501 15.2084C7.36501 15.2857 7.39574 15.3599 7.45043 15.4146C7.50513 15.4693 7.57932 15.5 7.65667 15.5H20C20.6443 15.5 21.1667 16.0224 21.1667 16.6667C21.1667 17.311 20.6443 17.8334 20 17.8334H7.16667C5.87167 17.8334 4.83334 16.7834 4.83334 15.5C4.83334 15.0917 4.93834 14.7067 5.11334 14.38L6.70001 11.5217L2.50001 2.66671H1.33334C0.689007 2.66671 0.166672 2.14437 0.166672 1.50004ZM7.16667 19C7.78551 19 8.379 19.2459 8.81659 19.6835C9.25417 20.121 9.50001 20.7145 9.50001 21.3334C9.50001 21.9522 9.25417 22.5457 8.81659 22.9833C8.379 23.4209 7.78551 23.6667 7.16667 23.6667C5.87167 23.6667 4.83334 22.6167 4.83334 21.3334C4.83334 20.0384 5.87167 19 7.16667 19ZM17.6667 10.8334L20.91 5.00004H6.16334L8.91667 10.8334H17.6667Z" fill="white"/>
</svg>
