<svg width="88" height="29" viewBox="0 0 88 29" fill="none" xmlns="http://www.w3.org/2000/svg">
<path d="M16.7031 17.7656C16.7812 17.8906 16.8711 18 16.9727 18.0938C17.082 18.1875 17.1914 18.2734 17.3008 18.3516C17.418 18.4375 17.5312 18.5234 17.6406 18.6094C17.7578 18.6953 17.8594 18.793 17.9453 18.9023C18.2109 18.9648 18.457 18.9531 18.6836 18.8672C18.9102 18.7891 19.1055 18.6953 19.2695 18.5859C19.3164 18.5547 19.3633 18.5156 19.4102 18.4688C19.4648 18.4219 19.5195 18.3828 19.5742 18.3516C19.6289 18.3203 19.6875 18.3008 19.75 18.293C19.8125 18.293 19.8789 18.3164 19.9492 18.3633C19.9336 18.4258 19.9102 18.5 19.8789 18.5859C19.8555 18.6719 19.8203 18.7461 19.7734 18.8086C19.7031 18.8867 19.6172 18.9688 19.5156 19.0547C19.4141 19.1484 19.3047 19.2344 19.1875 19.3125C19.0781 19.3906 18.9609 19.457 18.8359 19.5117C18.7188 19.5742 18.6016 19.6172 18.4844 19.6406C18.4453 19.6562 18.4062 19.6602 18.3672 19.6523C18.3281 19.6445 18.2852 19.6484 18.2383 19.6641C18.1133 19.6797 17.9844 19.707 17.8516 19.7461C17.7266 19.793 17.5977 19.8125 17.4648 19.8047C17.332 19.8047 17.1953 19.7734 17.0547 19.7109C16.9141 19.6562 16.8008 19.5977 16.7148 19.5352C16.668 19.4961 16.6289 19.4453 16.5977 19.3828C16.5742 19.3281 16.5547 19.2656 16.5391 19.1953C16.4844 19.2031 16.4297 19.2148 16.375 19.2305C16.3203 19.2461 16.2617 19.2383 16.1992 19.207C16.1602 19.1914 16.1367 19.168 16.1289 19.1367C16.1211 19.1133 16.0977 19.082 16.0586 19.043C16.043 19.0273 16.0156 19.0156 15.9766 19.0078C15.9453 19 15.9141 18.9844 15.8828 18.9609C15.8438 18.9375 15.8086 18.9023 15.7773 18.8555C15.7461 18.8164 15.7109 18.7852 15.6719 18.7617C15.5625 18.6758 15.4492 18.5977 15.332 18.5273C15.2227 18.4648 15.1445 18.3789 15.0977 18.2695C14.9023 18.3086 14.6562 18.3438 14.3594 18.375C14.0625 18.4141 13.7773 18.4141 13.5039 18.375C13.4414 18.3672 13.375 18.3516 13.3047 18.3281C13.2344 18.3125 13.1641 18.3047 13.0938 18.3047C12.9922 18.3047 12.8906 18.3008 12.7891 18.293C12.6875 18.2852 12.6172 18.2383 12.5781 18.1523C12.2812 18.0508 12.0195 17.918 11.793 17.7539C11.5664 17.582 11.3594 17.3906 11.1719 17.1797C11.0234 17.1406 10.9141 17.0703 10.8438 16.9688C10.8047 16.9141 10.7773 16.8516 10.7617 16.7812C10.7461 16.7031 10.7188 16.6406 10.6797 16.5938C10.6641 16.5625 10.6367 16.543 10.5977 16.5352C10.5664 16.5195 10.5391 16.5 10.5156 16.4766C10.4844 16.4453 10.4414 16.3984 10.3867 16.3359C10.332 16.2734 10.293 16.2109 10.2695 16.1484C10.2539 16.125 10.2461 16.0977 10.2461 16.0664C10.2461 16.0352 10.2383 16.0078 10.2227 15.9844C10.207 15.9531 10.1914 15.9336 10.1758 15.9258C10.1602 15.9102 10.1484 15.8906 10.1406 15.8672C10.1094 15.7734 10.0859 15.6562 10.0703 15.5156C10.0625 15.3672 10.0586 15.2383 10.0586 15.1289C10.0586 14.8242 10.0664 14.5156 10.082 14.2031C10.1055 13.8906 10.1445 13.5859 10.1992 13.2891C10.2617 12.9844 10.3398 12.6953 10.4336 12.4219C10.5273 12.1484 10.6445 11.9023 10.7852 11.6836C10.8945 11.5117 10.9922 11.3711 11.0781 11.2617C11.1719 11.1445 11.3047 11.0234 11.4766 10.8984C11.6016 10.7969 11.7148 10.707 11.8164 10.6289C11.9258 10.5508 12.0664 10.4922 12.2383 10.4531C12.3086 10.4141 12.3711 10.3711 12.4258 10.3242C12.4883 10.2695 12.5234 10.1836 12.5312 10.0664C12.6484 9.98047 12.793 9.89062 12.9648 9.79688C13.1445 9.69531 13.3125 9.61328 13.4688 9.55078C13.6953 9.44141 13.9414 9.34375 14.207 9.25781C14.4805 9.16406 14.7539 9.11328 15.0273 9.10547C15.1836 9.09766 15.3398 9.10156 15.4961 9.11719C15.6523 9.13281 15.8008 9.14844 15.9414 9.16406C16.1992 9.16406 16.3906 9.21094 16.5156 9.30469C16.6406 9.39062 16.7695 9.47656 16.9023 9.5625C17.082 9.53125 17.2383 9.5625 17.3711 9.65625C17.5039 9.75 17.625 9.83594 17.7344 9.91406C17.7734 9.9375 17.8086 9.95703 17.8398 9.97266C17.8789 9.98828 17.9141 10.0039 17.9453 10.0195C17.9922 10.0586 18.0312 10.1094 18.0625 10.1719C18.0938 10.2266 18.1328 10.2617 18.1797 10.2773C18.2266 10.293 18.2734 10.2969 18.3203 10.2891C18.3672 10.2812 18.4102 10.2852 18.4492 10.3008C18.4805 10.3164 18.5078 10.3477 18.5312 10.3945C18.5625 10.4414 18.5938 10.4805 18.625 10.5117C18.6641 10.5586 18.707 10.5977 18.7539 10.6289C18.8008 10.6523 18.8359 10.6836 18.8594 10.7227C18.875 10.7461 18.8906 10.7773 18.9062 10.8164C18.9219 10.8555 18.9375 10.8945 18.9531 10.9336C19 11.0117 19.043 11.0859 19.082 11.1562C19.1211 11.2266 19.1602 11.3164 19.1992 11.4258C19.2773 11.543 19.3281 11.6367 19.3516 11.707C19.3672 11.7695 19.375 11.8438 19.375 11.9297C19.375 12.0078 19.3828 12.0859 19.3984 12.1641C19.4219 12.2969 19.4453 12.4297 19.4688 12.5625C19.4922 12.6953 19.5 12.8438 19.4922 13.0078C19.4844 13.0625 19.4727 13.1172 19.457 13.1719C19.4492 13.2188 19.4414 13.2734 19.4336 13.3359C19.4336 13.3984 19.4375 13.457 19.4453 13.5117C19.4531 13.5664 19.4492 13.625 19.4336 13.6875C19.3945 13.9141 19.3203 14.1328 19.2109 14.3438C19.1094 14.5547 19.0039 14.7617 18.8945 14.9648C18.8398 15.0664 18.7891 15.1719 18.7422 15.2812C18.6953 15.3828 18.6484 15.4805 18.6016 15.5742C18.5547 15.6836 18.4922 15.7734 18.4141 15.8438C18.3438 15.9062 18.2773 15.9805 18.2148 16.0664C18.1992 16.0977 18.1875 16.1289 18.1797 16.1602C18.1719 16.1914 18.1602 16.2266 18.1445 16.2656C18.082 16.3906 18.0039 16.5156 17.9102 16.6406C17.8164 16.7656 17.7188 16.8828 17.6172 16.9922C17.5859 17.0312 17.5586 17.0742 17.5352 17.1211C17.5117 17.1602 17.4844 17.1953 17.4531 17.2266C17.3594 17.3438 17.2344 17.4414 17.0781 17.5195C16.9297 17.5898 16.8047 17.6719 16.7031 17.7656ZM14.4883 10.6992C14.332 10.8086 14.1914 10.9062 14.0664 10.9922C13.9492 11.0781 13.8281 11.1797 13.7031 11.2969C13.6641 11.3359 13.625 11.375 13.5859 11.4141C13.5469 11.4531 13.5156 11.4922 13.4922 11.5312C13.4609 11.5703 13.4375 11.6211 13.4219 11.6836C13.4062 11.7383 13.3867 11.793 13.3633 11.8477C13.3398 11.9023 13.3047 11.9453 13.2578 11.9766C13.2109 12.0078 13.168 12.0508 13.1289 12.1055C13.0898 12.1523 13.0508 12.2227 13.0117 12.3164C12.9805 12.4023 12.9414 12.4883 12.8945 12.5742C12.832 12.707 12.7734 12.832 12.7188 12.9492C12.6641 13.0664 12.6172 13.207 12.5781 13.3711C12.5469 13.4805 12.5117 13.6094 12.4727 13.7578C12.4414 13.9062 12.4336 14.0469 12.4492 14.1797C12.457 14.2266 12.4688 14.2695 12.4844 14.3086C12.5078 14.3398 12.5234 14.375 12.5312 14.4141C12.5469 14.5625 12.5312 14.6914 12.4844 14.8008C12.4375 14.9102 12.4102 15.0391 12.4023 15.1875C12.3945 15.2891 12.3984 15.3867 12.4141 15.4805C12.4375 15.5664 12.4648 15.6523 12.4961 15.7383C12.5273 15.8164 12.5586 15.8906 12.5898 15.9609C12.6289 16.0312 12.6602 16.1016 12.6836 16.1719C12.707 16.2422 12.7344 16.3125 12.7656 16.3828C12.7969 16.4453 12.8359 16.4922 12.8828 16.5234C13 16.5078 13.1211 16.4766 13.2461 16.4297C13.3711 16.3828 13.5 16.332 13.6328 16.2773C13.7656 16.2227 13.8945 16.1602 14.0195 16.0898C14.1523 16.0195 14.2852 15.9922 14.418 16.0078C14.457 16.0156 14.5 16.0312 14.5469 16.0547C14.6016 16.0703 14.6523 16.0859 14.6992 16.1016C14.8242 16.1484 14.9375 16.1797 15.0391 16.1953C15.1406 16.2109 15.2227 16.2695 15.2852 16.3711C15.3008 16.4648 15.3438 16.5391 15.4141 16.5938C15.4844 16.6484 15.5391 16.7109 15.5781 16.7812C15.7266 16.7188 15.8359 16.6328 15.9062 16.5234C15.9844 16.4062 16.0742 16.2539 16.1758 16.0664C16.2617 15.9258 16.3633 15.7539 16.4805 15.5508C16.5977 15.3477 16.6758 15.1523 16.7148 14.9648C16.7539 14.7617 16.7812 14.5547 16.7969 14.3438C16.8203 14.125 16.8516 13.9141 16.8906 13.7109C16.9219 13.5156 16.9531 13.3203 16.9844 13.125C17.0156 12.9297 17.0508 12.7383 17.0898 12.5508C17.1055 12.4883 17.1211 12.4297 17.1367 12.375C17.1602 12.3125 17.1719 12.25 17.1719 12.1875C17.1797 12.1172 17.1797 12.0391 17.1719 11.9531C17.1641 11.8594 17.1523 11.7734 17.1367 11.6953C17.1211 11.5859 17.1016 11.4727 17.0781 11.3555C17.0547 11.2305 17.0273 11.1289 16.9961 11.0508C16.9336 10.8555 16.8398 10.7227 16.7148 10.6523C16.5977 10.582 16.4609 10.5039 16.3047 10.418C16.2422 10.3867 16.1875 10.3516 16.1406 10.3125C16.0938 10.2656 16.0508 10.2383 16.0117 10.2305C15.918 10.2148 15.8203 10.2266 15.7188 10.2656C15.625 10.2969 15.5352 10.3047 15.4492 10.2891C15.4102 10.2891 15.375 10.2773 15.3438 10.2539C15.3125 10.2227 15.2695 10.2148 15.2148 10.2305C15.1289 10.3477 15.0195 10.4336 14.8867 10.4883C14.7539 10.543 14.6211 10.6133 14.4883 10.6992ZM25.5977 14.8828C25.7695 15.0156 25.9453 15.1484 26.125 15.2812C26.3125 15.4141 26.4609 15.5742 26.5703 15.7617C26.5469 15.832 26.543 15.8906 26.5586 15.9375C26.5742 15.9766 26.5977 16.0156 26.6289 16.0547C26.668 16.0859 26.7031 16.1211 26.7344 16.1602C26.7734 16.1914 26.8008 16.2344 26.8164 16.2891C26.8398 16.3906 26.832 16.5078 26.793 16.6406C26.7539 16.7656 26.7266 16.8906 26.7109 17.0156C26.6953 17.0781 26.6836 17.1445 26.6758 17.2148C26.6758 17.2773 26.668 17.3398 26.6523 17.4023C26.6211 17.5664 26.5977 17.7227 26.582 17.8711C26.5664 18.0195 26.5859 18.1758 26.6406 18.3398C26.6797 18.4648 26.7461 18.6016 26.8398 18.75C26.9414 18.9062 27.043 19.0078 27.1445 19.0547C27.1836 19.0781 27.2148 19.0859 27.2383 19.0781C27.2617 19.0781 27.293 19.0859 27.332 19.1016C27.3789 19.125 27.4141 19.1602 27.4375 19.207C27.4688 19.2539 27.5195 19.2891 27.5898 19.3125C27.6992 19.2422 27.8203 19.2227 27.9531 19.2539C28.0859 19.293 28.2188 19.3086 28.3516 19.3008C28.3906 19.3008 28.4258 19.2891 28.457 19.2656C28.4883 19.25 28.5195 19.2422 28.5508 19.2422C28.7305 19.2266 28.9141 19.2109 29.1016 19.1953C29.2969 19.1797 29.4844 19.1445 29.6641 19.0898C29.75 19.0664 29.8398 19.0273 29.9336 18.9727C30.0273 18.918 30.1211 18.8633 30.2148 18.8086C30.3398 18.7305 30.4648 18.6484 30.5898 18.5625C30.7227 18.4766 30.8711 18.4609 31.0352 18.5156C31.043 18.6641 31.0195 18.7812 30.9648 18.8672C30.9102 18.9609 30.8398 19.0391 30.7539 19.1016C30.668 19.1719 30.5781 19.2383 30.4844 19.3008C30.3906 19.3633 30.3125 19.4336 30.25 19.5117C30.1094 19.5508 29.9961 19.6016 29.9102 19.6641C29.8242 19.7344 29.7266 19.8047 29.6172 19.875C29.5547 19.9062 29.4922 19.9297 29.4297 19.9453C29.375 19.9609 29.3203 19.9883 29.2656 20.0273C29.2031 20.0586 29.1484 20.1016 29.1016 20.1562C29.0547 20.2109 29.0039 20.2578 28.9492 20.2969C28.8867 20.3359 28.8125 20.3594 28.7266 20.3672C28.6484 20.3828 28.5742 20.3984 28.5039 20.4141C28.293 20.4766 28.0703 20.5273 27.8359 20.5664C27.6016 20.6133 27.3633 20.6406 27.1211 20.6484C26.8867 20.6641 26.6523 20.6523 26.418 20.6133C26.1836 20.582 25.9609 20.5195 25.75 20.4258C25.6328 20.3789 25.5352 20.3164 25.457 20.2383C25.3867 20.168 25.3086 20.0898 25.2227 20.0039C25.1211 19.918 25.0117 19.8164 24.8945 19.6992C24.7852 19.5898 24.6992 19.4805 24.6367 19.3711C24.6133 19.3086 24.5898 19.2344 24.5664 19.1484C24.5508 19.0625 24.5312 18.9766 24.5078 18.8906C24.4844 18.8047 24.4531 18.707 24.4141 18.5977C24.3828 18.4961 24.3672 18.3867 24.3672 18.2695C24.3594 18.0742 24.375 17.8711 24.4141 17.6602C24.4609 17.4414 24.5 17.2305 24.5312 17.0273C24.5703 16.8164 24.5898 16.6172 24.5898 16.4297C24.5898 16.2344 24.5508 16.0625 24.4727 15.9141C24.4492 15.8672 24.4141 15.8242 24.3672 15.7852C24.3281 15.7383 24.2891 15.6875 24.25 15.6328C24.1641 15.5234 24.0703 15.4258 23.9688 15.3398C23.8672 15.2461 23.7266 15.1875 23.5469 15.1641C23.4219 15.1484 23.2812 15.1484 23.125 15.1641C22.9688 15.1719 22.8555 15.2031 22.7852 15.2578C22.6758 15.3203 22.6133 15.4219 22.5977 15.5625C22.5898 15.6953 22.5703 15.8359 22.5391 15.9844C22.5 16.1641 22.4453 16.3281 22.375 16.4766C22.3125 16.625 22.293 16.793 22.3164 16.9805C22.332 17.0586 22.3555 17.1523 22.3867 17.2617C22.418 17.3711 22.4492 17.457 22.4805 17.5195C22.5039 17.5742 22.543 17.6406 22.5977 17.7188C22.6523 17.7969 22.6602 17.8672 22.6211 17.9297C22.5742 17.9922 22.4961 18.0156 22.3867 18C22.2773 17.9844 22.168 17.9727 22.0586 17.9648C21.9258 17.957 21.8125 17.9531 21.7188 17.9531C21.6328 17.9453 21.5508 17.9453 21.4727 17.9531C21.3945 17.9531 21.3125 17.9609 21.2266 17.9766C21.1406 17.9844 21.0352 17.9961 20.9102 18.0117C20.8477 18.0195 20.7969 18.0273 20.7578 18.0352C20.7266 18.043 20.6953 18.0508 20.6641 18.0586C20.6406 18.0742 20.6133 18.0859 20.582 18.0938C20.5586 18.1094 20.5195 18.125 20.4648 18.1406C20.418 18.1562 20.375 18.1758 20.3359 18.1992C20.2969 18.2305 20.2578 18.2539 20.2188 18.2695C20.0859 18.3086 19.9414 18.332 19.7852 18.3398C19.6289 18.3555 19.4805 18.3633 19.3398 18.3633C19.207 18.3711 19.0742 18.3672 18.9414 18.3516C18.8008 18.3438 18.6758 18.3203 18.5664 18.2812C18.582 18.1875 18.625 18.125 18.6953 18.0938C18.7656 18.0625 18.8242 18.0195 18.8711 17.9648C19.0742 17.9258 19.2812 17.8398 19.4922 17.707C19.6953 17.5664 19.8281 17.3945 19.8906 17.1914C19.9141 17.1211 19.9297 17.0469 19.9375 16.9688C19.9453 16.8828 19.957 16.8008 19.9727 16.7227C20.0117 16.5195 20.0508 16.3125 20.0898 16.1016C20.1289 15.8906 20.1797 15.6797 20.2422 15.4688C20.2578 15.4297 20.2773 15.3945 20.3008 15.3633C20.3242 15.332 20.3438 15.2969 20.3594 15.2578C20.4062 15.125 20.4336 14.9883 20.4414 14.8477C20.457 14.6992 20.4844 14.5586 20.5234 14.4258C20.5625 14.3242 20.6016 14.2305 20.6406 14.1445C20.6797 14.0508 20.7109 13.957 20.7344 13.8633C20.7578 13.7617 20.7773 13.6641 20.793 13.5703C20.8164 13.4766 20.8555 13.3906 20.9102 13.3125C20.9258 13.1797 20.9414 13.0547 20.957 12.9375C20.9727 12.8203 20.9766 12.6836 20.9688 12.5273C21.0547 12.4258 21.1328 12.3203 21.2031 12.2109C21.2812 12.0938 21.332 11.957 21.3555 11.8008C21.3711 11.7148 21.3672 11.6328 21.3438 11.5547C21.3281 11.4766 21.3203 11.3906 21.3203 11.2969C21.3281 11.0938 21.3438 10.9141 21.3672 10.7578C21.3984 10.5938 21.4219 10.4102 21.4375 10.207C21.375 10.0664 21.2773 9.97266 21.1445 9.92578C21.0195 9.87109 20.8828 9.79688 20.7344 9.70312C20.7109 9.69531 20.6797 9.67969 20.6406 9.65625C20.6016 9.63281 20.5586 9.60938 20.5117 9.58594C20.4727 9.55469 20.4375 9.52344 20.4062 9.49219C20.3828 9.46094 20.3711 9.43359 20.3711 9.41016C20.3789 9.35547 20.4102 9.3125 20.4648 9.28125C20.5273 9.24219 20.5938 9.21875 20.6641 9.21094C20.7422 9.19531 20.8203 9.19141 20.8984 9.19922C20.9766 9.19922 21.043 9.20312 21.0977 9.21094C21.293 9.25 21.4805 9.28906 21.6602 9.32812C21.8398 9.36719 22.0234 9.40234 22.2109 9.43359C22.4062 9.45703 22.6094 9.47266 22.8203 9.48047C23.0391 9.48828 23.2852 9.48047 23.5586 9.45703C23.6602 9.44922 23.7461 9.4375 23.8164 9.42188C23.8945 9.39844 23.9805 9.38281 24.0742 9.375C24.207 9.36719 24.3359 9.35547 24.4609 9.33984C24.5938 9.31641 24.7266 9.3125 24.8594 9.32812C25.1016 9.35156 25.3164 9.35156 25.5039 9.32812C25.6914 9.29688 25.8906 9.29297 26.1016 9.31641C26.2031 9.33203 26.2969 9.36328 26.3828 9.41016C26.4766 9.44922 26.5664 9.49219 26.6523 9.53906C26.7461 9.58594 26.8359 9.62891 26.9219 9.66797C27.0156 9.69922 27.1094 9.71875 27.2031 9.72656C27.3438 9.8125 27.4766 9.92188 27.6016 10.0547C27.7344 10.1875 27.8555 10.3359 27.9648 10.5C28.0508 10.6328 28.1328 10.7852 28.2109 10.957C28.2891 11.1289 28.3477 11.2734 28.3867 11.3906C28.4414 11.5312 28.4648 11.6719 28.457 11.8125C28.4492 11.9453 28.4297 12.0742 28.3984 12.1992C28.3359 12.4258 28.2578 12.6289 28.1641 12.8086C28.0703 12.9883 27.9648 13.1602 27.8477 13.3242C27.7383 13.4805 27.6211 13.6406 27.4961 13.8047C27.3789 13.9609 27.2695 14.125 27.168 14.2969C27.1055 14.3203 27.043 14.3359 26.9805 14.3438C26.9258 14.3438 26.8711 14.3555 26.8164 14.3789C26.7305 14.418 26.6562 14.4766 26.5938 14.5547C26.5312 14.625 26.4492 14.6758 26.3477 14.707C26.3086 14.7227 26.2656 14.7266 26.2188 14.7188C26.1797 14.7109 26.1406 14.7109 26.1016 14.7188C26.0156 14.7422 25.9336 14.7734 25.8555 14.8125C25.7852 14.8438 25.6992 14.8672 25.5977 14.8828ZM24.9062 13.8867C25.0312 13.7305 25.168 13.5859 25.3164 13.4531C25.4648 13.3125 25.582 13.1523 25.668 12.9727C25.707 12.8867 25.7383 12.7852 25.7617 12.668C25.793 12.543 25.8203 12.4258 25.8438 12.3164C25.8828 12.082 25.8867 11.875 25.8555 11.6953C25.8242 11.5156 25.7695 11.3555 25.6914 11.2148C25.6133 11.0742 25.5156 10.9531 25.3984 10.8516C25.2812 10.75 25.1523 10.6602 25.0117 10.582C24.9023 10.5195 24.7891 10.4531 24.6719 10.3828C24.5625 10.3047 24.4258 10.2891 24.2617 10.3359C24.1445 10.4062 24.0469 10.5195 23.9688 10.6758C23.8984 10.832 23.832 10.9766 23.7695 11.1094C23.7461 11.1641 23.7188 11.2188 23.6875 11.2734C23.6641 11.3281 23.6445 11.375 23.6289 11.4141C23.6211 11.4688 23.6211 11.5273 23.6289 11.5898C23.6367 11.6445 23.6328 11.7031 23.6172 11.7656C23.6016 11.8203 23.5625 11.8594 23.5 11.8828C23.4375 11.8984 23.4023 11.9336 23.3945 11.9883C23.3945 12.043 23.4141 12.0938 23.4531 12.1406C23.5 12.1797 23.5234 12.2305 23.5234 12.293C23.5156 12.3867 23.4805 12.4922 23.418 12.6094C23.3633 12.7266 23.3281 12.8477 23.3125 12.9727C23.2969 13.0898 23.2695 13.2031 23.2305 13.3125C23.1992 13.4219 23.1641 13.5312 23.125 13.6406C23.0938 13.75 23.0625 13.8633 23.0312 13.9805C23.0078 14.0898 23 14.2031 23.0078 14.3203C23.1641 14.3516 23.332 14.3633 23.5117 14.3555C23.6914 14.3477 23.8672 14.3242 24.0391 14.2852C24.2109 14.2461 24.3711 14.1953 24.5195 14.1328C24.6758 14.0625 24.8047 13.9805 24.9062 13.8867Z" fill="black"/>
<path d="M4.42274 5.55539L16.0173 1.93211C17.9594 1.32518 20.0406 1.32518 21.9827 1.93211L33.5773 5.55539C34.5046 5.84518 35.3242 6.4053 35.9312 7.16396C36.6231 8.02882 37 9.10341 37 10.211V19.289C37 20.3966 36.6231 21.4712 35.9312 22.336C35.3242 23.0947 34.5046 23.6548 33.5773 23.9446L21.9827 27.5679C20.0406 28.1748 17.9594 28.1748 16.0173 27.5679L4.42274 23.9446C3.49541 23.6548 2.67576 23.0947 2.06884 22.336C1.37695 21.4712 1 20.3966 1 19.289V10.211C1 9.10341 1.37695 8.02882 2.06884 7.16396C2.67576 6.4053 3.49541 5.84518 4.42274 5.55539Z" stroke="black"/>
<path d="M50.7031 17.7656C50.7812 17.8906 50.8711 18 50.9727 18.0938C51.082 18.1875 51.1914 18.2734 51.3008 18.3516C51.418 18.4375 51.5312 18.5234 51.6406 18.6094C51.7578 18.6953 51.8594 18.793 51.9453 18.9023C52.2109 18.9648 52.457 18.9531 52.6836 18.8672C52.9102 18.7891 53.1055 18.6953 53.2695 18.5859C53.3164 18.5547 53.3633 18.5156 53.4102 18.4688C53.4648 18.4219 53.5195 18.3828 53.5742 18.3516C53.6289 18.3203 53.6875 18.3008 53.75 18.293C53.8125 18.293 53.8789 18.3164 53.9492 18.3633C53.9336 18.4258 53.9102 18.5 53.8789 18.5859C53.8555 18.6719 53.8203 18.7461 53.7734 18.8086C53.7031 18.8867 53.6172 18.9688 53.5156 19.0547C53.4141 19.1484 53.3047 19.2344 53.1875 19.3125C53.0781 19.3906 52.9609 19.457 52.8359 19.5117C52.7188 19.5742 52.6016 19.6172 52.4844 19.6406C52.4453 19.6562 52.4062 19.6602 52.3672 19.6523C52.3281 19.6445 52.2852 19.6484 52.2383 19.6641C52.1133 19.6797 51.9844 19.707 51.8516 19.7461C51.7266 19.793 51.5977 19.8125 51.4648 19.8047C51.332 19.8047 51.1953 19.7734 51.0547 19.7109C50.9141 19.6562 50.8008 19.5977 50.7148 19.5352C50.668 19.4961 50.6289 19.4453 50.5977 19.3828C50.5742 19.3281 50.5547 19.2656 50.5391 19.1953C50.4844 19.2031 50.4297 19.2148 50.375 19.2305C50.3203 19.2461 50.2617 19.2383 50.1992 19.207C50.1602 19.1914 50.1367 19.168 50.1289 19.1367C50.1211 19.1133 50.0977 19.082 50.0586 19.043C50.043 19.0273 50.0156 19.0156 49.9766 19.0078C49.9453 19 49.9141 18.9844 49.8828 18.9609C49.8438 18.9375 49.8086 18.9023 49.7773 18.8555C49.7461 18.8164 49.7109 18.7852 49.6719 18.7617C49.5625 18.6758 49.4492 18.5977 49.332 18.5273C49.2227 18.4648 49.1445 18.3789 49.0977 18.2695C48.9023 18.3086 48.6562 18.3438 48.3594 18.375C48.0625 18.4141 47.7773 18.4141 47.5039 18.375C47.4414 18.3672 47.375 18.3516 47.3047 18.3281C47.2344 18.3125 47.1641 18.3047 47.0938 18.3047C46.9922 18.3047 46.8906 18.3008 46.7891 18.293C46.6875 18.2852 46.6172 18.2383 46.5781 18.1523C46.2812 18.0508 46.0195 17.918 45.793 17.7539C45.5664 17.582 45.3594 17.3906 45.1719 17.1797C45.0234 17.1406 44.9141 17.0703 44.8438 16.9688C44.8047 16.9141 44.7773 16.8516 44.7617 16.7812C44.7461 16.7031 44.7188 16.6406 44.6797 16.5938C44.6641 16.5625 44.6367 16.543 44.5977 16.5352C44.5664 16.5195 44.5391 16.5 44.5156 16.4766C44.4844 16.4453 44.4414 16.3984 44.3867 16.3359C44.332 16.2734 44.293 16.2109 44.2695 16.1484C44.2539 16.125 44.2461 16.0977 44.2461 16.0664C44.2461 16.0352 44.2383 16.0078 44.2227 15.9844C44.207 15.9531 44.1914 15.9336 44.1758 15.9258C44.1602 15.9102 44.1484 15.8906 44.1406 15.8672C44.1094 15.7734 44.0859 15.6562 44.0703 15.5156C44.0625 15.3672 44.0586 15.2383 44.0586 15.1289C44.0586 14.8242 44.0664 14.5156 44.082 14.2031C44.1055 13.8906 44.1445 13.5859 44.1992 13.2891C44.2617 12.9844 44.3398 12.6953 44.4336 12.4219C44.5273 12.1484 44.6445 11.9023 44.7852 11.6836C44.8945 11.5117 44.9922 11.3711 45.0781 11.2617C45.1719 11.1445 45.3047 11.0234 45.4766 10.8984C45.6016 10.7969 45.7148 10.707 45.8164 10.6289C45.9258 10.5508 46.0664 10.4922 46.2383 10.4531C46.3086 10.4141 46.3711 10.3711 46.4258 10.3242C46.4883 10.2695 46.5234 10.1836 46.5312 10.0664C46.6484 9.98047 46.793 9.89062 46.9648 9.79688C47.1445 9.69531 47.3125 9.61328 47.4688 9.55078C47.6953 9.44141 47.9414 9.34375 48.207 9.25781C48.4805 9.16406 48.7539 9.11328 49.0273 9.10547C49.1836 9.09766 49.3398 9.10156 49.4961 9.11719C49.6523 9.13281 49.8008 9.14844 49.9414 9.16406C50.1992 9.16406 50.3906 9.21094 50.5156 9.30469C50.6406 9.39062 50.7695 9.47656 50.9023 9.5625C51.082 9.53125 51.2383 9.5625 51.3711 9.65625C51.5039 9.75 51.625 9.83594 51.7344 9.91406C51.7734 9.9375 51.8086 9.95703 51.8398 9.97266C51.8789 9.98828 51.9141 10.0039 51.9453 10.0195C51.9922 10.0586 52.0312 10.1094 52.0625 10.1719C52.0938 10.2266 52.1328 10.2617 52.1797 10.2773C52.2266 10.293 52.2734 10.2969 52.3203 10.2891C52.3672 10.2812 52.4102 10.2852 52.4492 10.3008C52.4805 10.3164 52.5078 10.3477 52.5312 10.3945C52.5625 10.4414 52.5938 10.4805 52.625 10.5117C52.6641 10.5586 52.707 10.5977 52.7539 10.6289C52.8008 10.6523 52.8359 10.6836 52.8594 10.7227C52.875 10.7461 52.8906 10.7773 52.9062 10.8164C52.9219 10.8555 52.9375 10.8945 52.9531 10.9336C53 11.0117 53.043 11.0859 53.082 11.1562C53.1211 11.2266 53.1602 11.3164 53.1992 11.4258C53.2773 11.543 53.3281 11.6367 53.3516 11.707C53.3672 11.7695 53.375 11.8438 53.375 11.9297C53.375 12.0078 53.3828 12.0859 53.3984 12.1641C53.4219 12.2969 53.4453 12.4297 53.4688 12.5625C53.4922 12.6953 53.5 12.8438 53.4922 13.0078C53.4844 13.0625 53.4727 13.1172 53.457 13.1719C53.4492 13.2188 53.4414 13.2734 53.4336 13.3359C53.4336 13.3984 53.4375 13.457 53.4453 13.5117C53.4531 13.5664 53.4492 13.625 53.4336 13.6875C53.3945 13.9141 53.3203 14.1328 53.2109 14.3438C53.1094 14.5547 53.0039 14.7617 52.8945 14.9648C52.8398 15.0664 52.7891 15.1719 52.7422 15.2812C52.6953 15.3828 52.6484 15.4805 52.6016 15.5742C52.5547 15.6836 52.4922 15.7734 52.4141 15.8438C52.3438 15.9062 52.2773 15.9805 52.2148 16.0664C52.1992 16.0977 52.1875 16.1289 52.1797 16.1602C52.1719 16.1914 52.1602 16.2266 52.1445 16.2656C52.082 16.3906 52.0039 16.5156 51.9102 16.6406C51.8164 16.7656 51.7188 16.8828 51.6172 16.9922C51.5859 17.0312 51.5586 17.0742 51.5352 17.1211C51.5117 17.1602 51.4844 17.1953 51.4531 17.2266C51.3594 17.3438 51.2344 17.4414 51.0781 17.5195C50.9297 17.5898 50.8047 17.6719 50.7031 17.7656ZM48.4883 10.6992C48.332 10.8086 48.1914 10.9062 48.0664 10.9922C47.9492 11.0781 47.8281 11.1797 47.7031 11.2969C47.6641 11.3359 47.625 11.375 47.5859 11.4141C47.5469 11.4531 47.5156 11.4922 47.4922 11.5312C47.4609 11.5703 47.4375 11.6211 47.4219 11.6836C47.4062 11.7383 47.3867 11.793 47.3633 11.8477C47.3398 11.9023 47.3047 11.9453 47.2578 11.9766C47.2109 12.0078 47.168 12.0508 47.1289 12.1055C47.0898 12.1523 47.0508 12.2227 47.0117 12.3164C46.9805 12.4023 46.9414 12.4883 46.8945 12.5742C46.832 12.707 46.7734 12.832 46.7188 12.9492C46.6641 13.0664 46.6172 13.207 46.5781 13.3711C46.5469 13.4805 46.5117 13.6094 46.4727 13.7578C46.4414 13.9062 46.4336 14.0469 46.4492 14.1797C46.457 14.2266 46.4688 14.2695 46.4844 14.3086C46.5078 14.3398 46.5234 14.375 46.5312 14.4141C46.5469 14.5625 46.5312 14.6914 46.4844 14.8008C46.4375 14.9102 46.4102 15.0391 46.4023 15.1875C46.3945 15.2891 46.3984 15.3867 46.4141 15.4805C46.4375 15.5664 46.4648 15.6523 46.4961 15.7383C46.5273 15.8164 46.5586 15.8906 46.5898 15.9609C46.6289 16.0312 46.6602 16.1016 46.6836 16.1719C46.707 16.2422 46.7344 16.3125 46.7656 16.3828C46.7969 16.4453 46.8359 16.4922 46.8828 16.5234C47 16.5078 47.1211 16.4766 47.2461 16.4297C47.3711 16.3828 47.5 16.332 47.6328 16.2773C47.7656 16.2227 47.8945 16.1602 48.0195 16.0898C48.1523 16.0195 48.2852 15.9922 48.418 16.0078C48.457 16.0156 48.5 16.0312 48.5469 16.0547C48.6016 16.0703 48.6523 16.0859 48.6992 16.1016C48.8242 16.1484 48.9375 16.1797 49.0391 16.1953C49.1406 16.2109 49.2227 16.2695 49.2852 16.3711C49.3008 16.4648 49.3438 16.5391 49.4141 16.5938C49.4844 16.6484 49.5391 16.7109 49.5781 16.7812C49.7266 16.7188 49.8359 16.6328 49.9062 16.5234C49.9844 16.4062 50.0742 16.2539 50.1758 16.0664C50.2617 15.9258 50.3633 15.7539 50.4805 15.5508C50.5977 15.3477 50.6758 15.1523 50.7148 14.9648C50.7539 14.7617 50.7812 14.5547 50.7969 14.3438C50.8203 14.125 50.8516 13.9141 50.8906 13.7109C50.9219 13.5156 50.9531 13.3203 50.9844 13.125C51.0156 12.9297 51.0508 12.7383 51.0898 12.5508C51.1055 12.4883 51.1211 12.4297 51.1367 12.375C51.1602 12.3125 51.1719 12.25 51.1719 12.1875C51.1797 12.1172 51.1797 12.0391 51.1719 11.9531C51.1641 11.8594 51.1523 11.7734 51.1367 11.6953C51.1211 11.5859 51.1016 11.4727 51.0781 11.3555C51.0547 11.2305 51.0273 11.1289 50.9961 11.0508C50.9336 10.8555 50.8398 10.7227 50.7148 10.6523C50.5977 10.582 50.4609 10.5039 50.3047 10.418C50.2422 10.3867 50.1875 10.3516 50.1406 10.3125C50.0938 10.2656 50.0508 10.2383 50.0117 10.2305C49.918 10.2148 49.8203 10.2266 49.7188 10.2656C49.625 10.2969 49.5352 10.3047 49.4492 10.2891C49.4102 10.2891 49.375 10.2773 49.3438 10.2539C49.3125 10.2227 49.2695 10.2148 49.2148 10.2305C49.1289 10.3477 49.0195 10.4336 48.8867 10.4883C48.7539 10.543 48.6211 10.6133 48.4883 10.6992ZM58.918 13.4297C59.0273 13.5703 59.0547 13.7148 59 13.8633C58.9453 14.0039 58.8555 14.1094 58.7305 14.1797C58.6992 14.1953 58.668 14.207 58.6367 14.2148C58.6055 14.2148 58.5703 14.2227 58.5312 14.2383C58.4531 14.2773 58.3867 14.3281 58.332 14.3906C58.2852 14.4453 58.2305 14.4805 58.168 14.4961C58.1055 14.5039 58.0312 14.5 57.9453 14.4844C57.8672 14.4609 57.7852 14.4414 57.6992 14.4258C57.5195 14.4102 57.3242 14.4062 57.1133 14.4141C56.9102 14.4219 56.7188 14.4258 56.5391 14.4258C56.3828 14.4258 56.2422 14.418 56.1172 14.4023C55.9922 14.3789 55.8867 14.3359 55.8008 14.2734C55.6133 14.3281 55.4141 14.375 55.2031 14.4141C54.9922 14.4531 54.7812 14.4609 54.5703 14.4375C54.4375 14.4219 54.3086 14.3906 54.1836 14.3438C54.0664 14.2969 53.9492 14.2734 53.832 14.2734C53.8164 14.1797 53.8203 14.0977 53.8438 14.0273C53.875 13.9492 53.9141 13.8789 53.9609 13.8164C54.0078 13.7461 54.0547 13.6836 54.1016 13.6289C54.1484 13.5742 54.1914 13.5156 54.2305 13.4531C54.3086 13.4219 54.3867 13.4062 54.4648 13.4062C54.5508 13.3984 54.6328 13.4023 54.7109 13.418C54.7969 13.4258 54.8828 13.4375 54.9688 13.4531C55.0547 13.4688 55.1445 13.4727 55.2383 13.4648C55.2852 13.4648 55.3281 13.457 55.3672 13.4414C55.4141 13.418 55.4609 13.4062 55.5078 13.4062C55.5859 13.3984 55.6641 13.3984 55.7422 13.4062C55.8203 13.4062 55.9023 13.4062 55.9883 13.4062C56.0664 13.4062 56.1484 13.4023 56.2344 13.3945C56.3281 13.3867 56.3945 13.3906 56.4336 13.4062C56.4883 13.4141 56.5352 13.4375 56.5742 13.4766C56.6211 13.5156 56.6719 13.5352 56.7266 13.5352C56.7656 13.5352 56.8008 13.5234 56.832 13.5C56.8711 13.4688 56.918 13.4453 56.9727 13.4297C57.0352 13.4141 57.1094 13.4062 57.1953 13.4062C57.2891 13.3984 57.3789 13.3945 57.4648 13.3945C57.5508 13.3945 57.6328 13.3945 57.7109 13.3945C57.7891 13.3945 57.8516 13.3906 57.8984 13.3828C58.0703 13.3672 58.2383 13.3672 58.4023 13.3828C58.5664 13.3984 58.7383 13.4141 58.918 13.4297ZM65.1406 14.8828C65.3125 15.0156 65.4883 15.1484 65.668 15.2812C65.8555 15.4141 66.0039 15.5742 66.1133 15.7617C66.0898 15.832 66.0859 15.8906 66.1016 15.9375C66.1172 15.9766 66.1406 16.0156 66.1719 16.0547C66.2109 16.0859 66.2461 16.1211 66.2773 16.1602C66.3164 16.1914 66.3438 16.2344 66.3594 16.2891C66.3828 16.3906 66.375 16.5078 66.3359 16.6406C66.2969 16.7656 66.2695 16.8906 66.2539 17.0156C66.2383 17.0781 66.2266 17.1445 66.2188 17.2148C66.2188 17.2773 66.2109 17.3398 66.1953 17.4023C66.1641 17.5664 66.1406 17.7227 66.125 17.8711C66.1094 18.0195 66.1289 18.1758 66.1836 18.3398C66.2227 18.4648 66.2891 18.6016 66.3828 18.75C66.4844 18.9062 66.5859 19.0078 66.6875 19.0547C66.7266 19.0781 66.7578 19.0859 66.7812 19.0781C66.8047 19.0781 66.8359 19.0859 66.875 19.1016C66.9219 19.125 66.957 19.1602 66.9805 19.207C67.0117 19.2539 67.0625 19.2891 67.1328 19.3125C67.2422 19.2422 67.3633 19.2227 67.4961 19.2539C67.6289 19.293 67.7617 19.3086 67.8945 19.3008C67.9336 19.3008 67.9688 19.2891 68 19.2656C68.0312 19.25 68.0625 19.2422 68.0938 19.2422C68.2734 19.2266 68.457 19.2109 68.6445 19.1953C68.8398 19.1797 69.0273 19.1445 69.207 19.0898C69.293 19.0664 69.3828 19.0273 69.4766 18.9727C69.5703 18.918 69.6641 18.8633 69.7578 18.8086C69.8828 18.7305 70.0078 18.6484 70.1328 18.5625C70.2656 18.4766 70.4141 18.4609 70.5781 18.5156C70.5859 18.6641 70.5625 18.7812 70.5078 18.8672C70.4531 18.9609 70.3828 19.0391 70.2969 19.1016C70.2109 19.1719 70.1211 19.2383 70.0273 19.3008C69.9336 19.3633 69.8555 19.4336 69.793 19.5117C69.6523 19.5508 69.5391 19.6016 69.4531 19.6641C69.3672 19.7344 69.2695 19.8047 69.1602 19.875C69.0977 19.9062 69.0352 19.9297 68.9727 19.9453C68.918 19.9609 68.8633 19.9883 68.8086 20.0273C68.7461 20.0586 68.6914 20.1016 68.6445 20.1562C68.5977 20.2109 68.5469 20.2578 68.4922 20.2969C68.4297 20.3359 68.3555 20.3594 68.2695 20.3672C68.1914 20.3828 68.1172 20.3984 68.0469 20.4141C67.8359 20.4766 67.6133 20.5273 67.3789 20.5664C67.1445 20.6133 66.9062 20.6406 66.6641 20.6484C66.4297 20.6641 66.1953 20.6523 65.9609 20.6133C65.7266 20.582 65.5039 20.5195 65.293 20.4258C65.1758 20.3789 65.0781 20.3164 65 20.2383C64.9297 20.168 64.8516 20.0898 64.7656 20.0039C64.6641 19.918 64.5547 19.8164 64.4375 19.6992C64.3281 19.5898 64.2422 19.4805 64.1797 19.3711C64.1562 19.3086 64.1328 19.2344 64.1094 19.1484C64.0938 19.0625 64.0742 18.9766 64.0508 18.8906C64.0273 18.8047 63.9961 18.707 63.957 18.5977C63.9258 18.4961 63.9102 18.3867 63.9102 18.2695C63.9023 18.0742 63.918 17.8711 63.957 17.6602C64.0039 17.4414 64.043 17.2305 64.0742 17.0273C64.1133 16.8164 64.1328 16.6172 64.1328 16.4297C64.1328 16.2344 64.0938 16.0625 64.0156 15.9141C63.9922 15.8672 63.957 15.8242 63.9102 15.7852C63.8711 15.7383 63.832 15.6875 63.793 15.6328C63.707 15.5234 63.6133 15.4258 63.5117 15.3398C63.4102 15.2461 63.2695 15.1875 63.0898 15.1641C62.9648 15.1484 62.8242 15.1484 62.668 15.1641C62.5117 15.1719 62.3984 15.2031 62.3281 15.2578C62.2188 15.3203 62.1562 15.4219 62.1406 15.5625C62.1328 15.6953 62.1133 15.8359 62.082 15.9844C62.043 16.1641 61.9883 16.3281 61.918 16.4766C61.8555 16.625 61.8359 16.793 61.8594 16.9805C61.875 17.0586 61.8984 17.1523 61.9297 17.2617C61.9609 17.3711 61.9922 17.457 62.0234 17.5195C62.0469 17.5742 62.0859 17.6406 62.1406 17.7188C62.1953 17.7969 62.2031 17.8672 62.1641 17.9297C62.1172 17.9922 62.0391 18.0156 61.9297 18C61.8203 17.9844 61.7109 17.9727 61.6016 17.9648C61.4688 17.957 61.3555 17.9531 61.2617 17.9531C61.1758 17.9453 61.0938 17.9453 61.0156 17.9531C60.9375 17.9531 60.8555 17.9609 60.7695 17.9766C60.6836 17.9844 60.5781 17.9961 60.4531 18.0117C60.3906 18.0195 60.3398 18.0273 60.3008 18.0352C60.2695 18.043 60.2383 18.0508 60.207 18.0586C60.1836 18.0742 60.1562 18.0859 60.125 18.0938C60.1016 18.1094 60.0625 18.125 60.0078 18.1406C59.9609 18.1562 59.918 18.1758 59.8789 18.1992C59.8398 18.2305 59.8008 18.2539 59.7617 18.2695C59.6289 18.3086 59.4844 18.332 59.3281 18.3398C59.1719 18.3555 59.0234 18.3633 58.8828 18.3633C58.75 18.3711 58.6172 18.3672 58.4844 18.3516C58.3438 18.3438 58.2188 18.3203 58.1094 18.2812C58.125 18.1875 58.168 18.125 58.2383 18.0938C58.3086 18.0625 58.3672 18.0195 58.4141 17.9648C58.6172 17.9258 58.8242 17.8398 59.0352 17.707C59.2383 17.5664 59.3711 17.3945 59.4336 17.1914C59.457 17.1211 59.4727 17.0469 59.4805 16.9688C59.4883 16.8828 59.5 16.8008 59.5156 16.7227C59.5547 16.5195 59.5938 16.3125 59.6328 16.1016C59.6719 15.8906 59.7227 15.6797 59.7852 15.4688C59.8008 15.4297 59.8203 15.3945 59.8438 15.3633C59.8672 15.332 59.8867 15.2969 59.9023 15.2578C59.9492 15.125 59.9766 14.9883 59.9844 14.8477C60 14.6992 60.0273 14.5586 60.0664 14.4258C60.1055 14.3242 60.1445 14.2305 60.1836 14.1445C60.2227 14.0508 60.2539 13.957 60.2773 13.8633C60.3008 13.7617 60.3203 13.6641 60.3359 13.5703C60.3594 13.4766 60.3984 13.3906 60.4531 13.3125C60.4688 13.1797 60.4844 13.0547 60.5 12.9375C60.5156 12.8203 60.5195 12.6836 60.5117 12.5273C60.5977 12.4258 60.6758 12.3203 60.7461 12.2109C60.8242 12.0938 60.875 11.957 60.8984 11.8008C60.9141 11.7148 60.9102 11.6328 60.8867 11.5547C60.8711 11.4766 60.8633 11.3906 60.8633 11.2969C60.8711 11.0938 60.8867 10.9141 60.9102 10.7578C60.9414 10.5938 60.9648 10.4102 60.9805 10.207C60.918 10.0664 60.8203 9.97266 60.6875 9.92578C60.5625 9.87109 60.4258 9.79688 60.2773 9.70312C60.2539 9.69531 60.2227 9.67969 60.1836 9.65625C60.1445 9.63281 60.1016 9.60938 60.0547 9.58594C60.0156 9.55469 59.9805 9.52344 59.9492 9.49219C59.9258 9.46094 59.9141 9.43359 59.9141 9.41016C59.9219 9.35547 59.9531 9.3125 60.0078 9.28125C60.0703 9.24219 60.1367 9.21875 60.207 9.21094C60.2852 9.19531 60.3633 9.19141 60.4414 9.19922C60.5195 9.19922 60.5859 9.20312 60.6406 9.21094C60.8359 9.25 61.0234 9.28906 61.2031 9.32812C61.3828 9.36719 61.5664 9.40234 61.7539 9.43359C61.9492 9.45703 62.1523 9.47266 62.3633 9.48047C62.582 9.48828 62.8281 9.48047 63.1016 9.45703C63.2031 9.44922 63.2891 9.4375 63.3594 9.42188C63.4375 9.39844 63.5234 9.38281 63.6172 9.375C63.75 9.36719 63.8789 9.35547 64.0039 9.33984C64.1367 9.31641 64.2695 9.3125 64.4023 9.32812C64.6445 9.35156 64.8594 9.35156 65.0469 9.32812C65.2344 9.29688 65.4336 9.29297 65.6445 9.31641C65.7461 9.33203 65.8398 9.36328 65.9258 9.41016C66.0195 9.44922 66.1094 9.49219 66.1953 9.53906C66.2891 9.58594 66.3789 9.62891 66.4648 9.66797C66.5586 9.69922 66.6523 9.71875 66.7461 9.72656C66.8867 9.8125 67.0195 9.92188 67.1445 10.0547C67.2773 10.1875 67.3984 10.3359 67.5078 10.5C67.5938 10.6328 67.6758 10.7852 67.7539 10.957C67.832 11.1289 67.8906 11.2734 67.9297 11.3906C67.9844 11.5312 68.0078 11.6719 68 11.8125C67.9922 11.9453 67.9727 12.0742 67.9414 12.1992C67.8789 12.4258 67.8008 12.6289 67.707 12.8086C67.6133 12.9883 67.5078 13.1602 67.3906 13.3242C67.2812 13.4805 67.1641 13.6406 67.0391 13.8047C66.9219 13.9609 66.8125 14.125 66.7109 14.2969C66.6484 14.3203 66.5859 14.3359 66.5234 14.3438C66.4688 14.3438 66.4141 14.3555 66.3594 14.3789C66.2734 14.418 66.1992 14.4766 66.1367 14.5547C66.0742 14.625 65.9922 14.6758 65.8906 14.707C65.8516 14.7227 65.8086 14.7266 65.7617 14.7188C65.7227 14.7109 65.6836 14.7109 65.6445 14.7188C65.5586 14.7422 65.4766 14.7734 65.3984 14.8125C65.3281 14.8438 65.2422 14.8672 65.1406 14.8828ZM64.4492 13.8867C64.5742 13.7305 64.7109 13.5859 64.8594 13.4531C65.0078 13.3125 65.125 13.1523 65.2109 12.9727C65.25 12.8867 65.2812 12.7852 65.3047 12.668C65.3359 12.543 65.3633 12.4258 65.3867 12.3164C65.4258 12.082 65.4297 11.875 65.3984 11.6953C65.3672 11.5156 65.3125 11.3555 65.2344 11.2148C65.1562 11.0742 65.0586 10.9531 64.9414 10.8516C64.8242 10.75 64.6953 10.6602 64.5547 10.582C64.4453 10.5195 64.332 10.4531 64.2148 10.3828C64.1055 10.3047 63.9688 10.2891 63.8047 10.3359C63.6875 10.4062 63.5898 10.5195 63.5117 10.6758C63.4414 10.832 63.375 10.9766 63.3125 11.1094C63.2891 11.1641 63.2617 11.2188 63.2305 11.2734C63.207 11.3281 63.1875 11.375 63.1719 11.4141C63.1641 11.4688 63.1641 11.5273 63.1719 11.5898C63.1797 11.6445 63.1758 11.7031 63.1602 11.7656C63.1445 11.8203 63.1055 11.8594 63.043 11.8828C62.9805 11.8984 62.9453 11.9336 62.9375 11.9883C62.9375 12.043 62.957 12.0938 62.9961 12.1406C63.043 12.1797 63.0664 12.2305 63.0664 12.293C63.0586 12.3867 63.0234 12.4922 62.9609 12.6094C62.9062 12.7266 62.8711 12.8477 62.8555 12.9727C62.8398 13.0898 62.8125 13.2031 62.7734 13.3125C62.7422 13.4219 62.707 13.5312 62.668 13.6406C62.6367 13.75 62.6055 13.8633 62.5742 13.9805C62.5508 14.0898 62.543 14.2031 62.5508 14.3203C62.707 14.3516 62.875 14.3633 63.0547 14.3555C63.2344 14.3477 63.4102 14.3242 63.582 14.2852C63.7539 14.2461 63.9141 14.1953 64.0625 14.1328C64.2188 14.0625 64.3477 13.9805 64.4492 13.8867ZM74.5977 12.8906C74.6758 13.0469 74.7344 13.1914 74.7734 13.3242C74.8125 13.457 74.8438 13.6367 74.8672 13.8633C74.8828 14.0195 74.8984 14.1602 74.9141 14.2852C74.9375 14.4023 74.9414 14.5508 74.9258 14.7305C74.918 14.8555 74.8984 14.9883 74.8672 15.1289C74.8359 15.2617 74.7969 15.3867 74.75 15.5039C74.6797 15.7148 74.6133 15.8984 74.5508 16.0547C74.4883 16.2109 74.4141 16.3789 74.3281 16.5586C74.2734 16.6602 74.2188 16.7422 74.1641 16.8047C74.1094 16.8672 74.0508 16.9336 73.9883 17.0039C73.9727 17.0273 73.957 17.0547 73.9414 17.0859C73.9336 17.1172 73.918 17.1445 73.8945 17.168C73.793 17.2852 73.6523 17.4062 73.4727 17.5312C73.3008 17.6562 73.1406 17.7461 72.9922 17.8008C72.9375 17.8164 72.8789 17.8281 72.8164 17.8359C72.7617 17.8359 72.7031 17.8438 72.6406 17.8594C72.5625 17.8906 72.4961 17.9375 72.4414 18C72.3867 18.0547 72.3164 18.0938 72.2305 18.1172C72.1836 18.1328 72.125 18.1445 72.0547 18.1523C71.9922 18.168 71.9297 18.1836 71.8672 18.1992C71.7109 18.2383 71.5156 18.2773 71.2812 18.3164C71.0547 18.3555 70.8438 18.3516 70.6484 18.3047C70.6172 18.2969 70.5859 18.2812 70.5547 18.2578C70.5234 18.2344 70.4883 18.2148 70.4492 18.1992C70.4102 18.1836 70.3711 18.1719 70.332 18.1641C70.293 18.1562 70.2578 18.1445 70.2266 18.1289C70.125 18.0898 70.0273 18.0352 69.9336 17.9648C69.8398 17.8945 69.7422 17.8398 69.6406 17.8008C69.5312 17.7383 69.4219 17.6836 69.3125 17.6367C69.2031 17.582 69.1289 17.4883 69.0898 17.3555C68.957 17.3164 68.8633 17.2266 68.8086 17.0859C68.7539 16.9453 68.6875 16.8203 68.6094 16.7109C68.5859 16.6719 68.5508 16.6406 68.5039 16.6172C68.4648 16.5859 68.4375 16.5508 68.4219 16.5117C68.3672 16.4258 68.3242 16.2891 68.293 16.1016C68.2617 15.9062 68.2422 15.7422 68.2344 15.6094C68.2266 15.4688 68.2344 15.3359 68.2578 15.2109C68.2891 15.0781 68.3203 14.9492 68.3516 14.8242C68.3906 14.6992 68.4297 14.5781 68.4688 14.4609C68.5156 14.3438 68.5547 14.2305 68.5859 14.1211C68.6172 13.9883 68.6758 13.8828 68.7617 13.8047C68.8477 13.7266 68.9297 13.6406 69.0078 13.5469C69.0391 13.5156 69.0625 13.4805 69.0781 13.4414C69.0938 13.4023 69.1172 13.3633 69.1484 13.3242C69.2109 13.2461 69.2812 13.1797 69.3594 13.125C69.4375 13.0625 69.5117 13 69.582 12.9375C69.6602 12.875 69.7422 12.8164 69.8281 12.7617C69.9141 12.6992 69.9844 12.6367 70.0391 12.5742C70.1016 12.4883 70.1484 12.4023 70.1797 12.3164C70.2188 12.2305 70.2773 12.1562 70.3555 12.0938C70.4414 12.0234 70.5352 11.9727 70.6367 11.9414C70.7461 11.9102 70.8711 11.875 71.0117 11.8359C71.1445 11.8047 71.2734 11.7617 71.3984 11.707C71.5312 11.6445 71.6719 11.6055 71.8203 11.5898C71.9609 11.5742 72.1133 11.5664 72.2773 11.5664C72.4414 11.5586 72.6016 11.5625 72.7578 11.5781C72.9219 11.5938 73.0742 11.6211 73.2148 11.6602C73.3633 11.6992 73.4922 11.7539 73.6016 11.8242C73.6562 11.8555 73.7109 11.9023 73.7656 11.9648C73.8281 12.0273 73.8867 12.0859 73.9414 12.1406C74.0664 12.2656 74.1719 12.3945 74.2578 12.5273C74.3516 12.6523 74.4648 12.7734 74.5977 12.8906ZM72.043 12.3633C72.0117 12.3633 71.9648 12.375 71.9023 12.3984C71.8477 12.4219 71.7891 12.4492 71.7266 12.4805C71.6719 12.5039 71.6211 12.5312 71.5742 12.5625C71.5273 12.5938 71.4922 12.6172 71.4688 12.6328C71.375 12.7188 71.2891 12.8281 71.2109 12.9609C71.1406 13.0859 71.0586 13.1992 70.9648 13.3008C70.9258 13.3398 70.8828 13.3711 70.8359 13.3945C70.7969 13.4102 70.7656 13.4336 70.7422 13.4648C70.6094 13.6133 70.5117 13.7852 70.4492 13.9805C70.3945 14.1758 70.3359 14.3633 70.2734 14.543C70.2031 14.7305 70.1367 14.9414 70.0742 15.1758C70.0117 15.4102 69.9922 15.6328 70.0156 15.8438C70.0234 15.8906 70.0391 15.9531 70.0625 16.0312C70.0938 16.1016 70.1211 16.168 70.1445 16.2305C70.1758 16.3008 70.2031 16.3711 70.2266 16.4414C70.2578 16.5039 70.2891 16.5625 70.3203 16.6172C70.3672 16.7109 70.4258 16.8125 70.4961 16.9219C70.5742 17.0234 70.6602 17.1133 70.7539 17.1914C70.8555 17.2617 70.9648 17.3164 71.082 17.3555C71.207 17.3867 71.3398 17.3828 71.4805 17.3438C71.5664 17.3125 71.6719 17.2656 71.7969 17.2031C71.9219 17.1328 72.0352 17.0664 72.1367 17.0039C72.2852 16.9102 72.3906 16.8164 72.4531 16.7227C72.5156 16.6211 72.5781 16.4922 72.6406 16.3359C72.6562 16.2969 72.6758 16.2617 72.6992 16.2305C72.7305 16.1914 72.7578 16.1523 72.7812 16.1133C72.8281 16.0273 72.8672 15.9336 72.8984 15.832C72.9297 15.7305 72.9688 15.6328 73.0156 15.5391C73.1094 15.3281 73.168 15.125 73.1914 14.9297C73.2148 14.7344 73.2344 14.5 73.25 14.2266C73.2578 14.0781 73.2461 13.9688 73.2148 13.8984C73.1914 13.8281 73.1719 13.7305 73.1562 13.6055C73.1484 13.5195 73.1445 13.4414 73.1445 13.3711C73.1445 13.293 73.1289 13.2266 73.0977 13.1719C73.0586 13.1016 72.9844 13.0547 72.875 13.0312C72.7734 13.0078 72.6914 12.9648 72.6289 12.9023C72.5664 12.8008 72.5 12.7031 72.4297 12.6094C72.3594 12.5156 72.2734 12.4375 72.1719 12.375C72.1328 12.3828 72.1055 12.3828 72.0898 12.375C72.0742 12.3672 72.0586 12.3633 72.043 12.3633ZM77.75 17.8945C77.6953 17.8867 77.6133 17.9062 77.5039 17.9531C77.4023 18 77.3086 18.0391 77.2227 18.0703C77.1367 18.0938 77.043 18.1211 76.9414 18.1523C76.8398 18.1836 76.7422 18.1953 76.6484 18.1875C76.5859 18.1797 76.5273 18.1602 76.4727 18.1289C76.418 18.1055 76.3672 18.0977 76.3203 18.1055C76.2812 18.1055 76.2461 18.1211 76.2148 18.1523C76.1836 18.1836 76.1445 18.207 76.0977 18.2227C76.0117 18.2539 75.9102 18.2773 75.793 18.293C75.6758 18.3164 75.5625 18.3242 75.4531 18.3164C75.3438 18.3086 75.2539 18.2773 75.1836 18.2227C75.1211 18.1758 75.1016 18.0977 75.125 17.9883C75.1406 17.918 75.168 17.8477 75.207 17.7773C75.2539 17.6992 75.2969 17.6133 75.3359 17.5195C75.3984 17.3555 75.4453 17.1836 75.4766 17.0039C75.5078 16.8164 75.5508 16.668 75.6055 16.5586C75.6367 16.4961 75.6836 16.4375 75.7461 16.3828C75.8086 16.3281 75.8438 16.2695 75.8516 16.207C75.8594 16.1602 75.8516 16.1211 75.8281 16.0898C75.8047 16.0586 75.793 16.0156 75.793 15.9609C75.793 15.9219 75.8008 15.8828 75.8164 15.8438C75.8398 15.7969 75.8555 15.7422 75.8633 15.6797C75.8711 15.6172 75.8711 15.5625 75.8633 15.5156C75.8555 15.4609 75.8594 15.4141 75.875 15.375C75.8906 15.3281 75.9141 15.2852 75.9453 15.2461C75.9766 15.1992 76.0078 15.1562 76.0391 15.1172C76.0781 15.0703 76.1094 15.0195 76.1328 14.9648C76.1562 14.9102 76.168 14.8477 76.168 14.7773C76.168 14.7383 76.1797 14.6758 76.2031 14.5898C76.2266 14.4961 76.2344 14.4258 76.2266 14.3789C76.2031 14.2148 76.2031 14.0781 76.2266 13.9688C76.2578 13.8594 76.293 13.7617 76.332 13.6758C76.3789 13.582 76.4258 13.4883 76.4727 13.3945C76.5273 13.3008 76.5664 13.1875 76.5898 13.0547C76.6211 12.8906 76.6445 12.7188 76.6602 12.5391C76.6758 12.3594 76.7031 12.1992 76.7422 12.0586C76.7891 11.9102 76.8555 11.793 76.9414 11.707C77.0352 11.6211 77.1758 11.5898 77.3633 11.6133C77.4414 11.707 77.4922 11.7969 77.5156 11.8828C77.5469 11.9688 77.5898 12.0664 77.6445 12.1758C77.668 12.2383 77.7305 12.293 77.832 12.3398C77.9336 12.3867 78.0039 12.4375 78.043 12.4922C78.082 12.5391 78.125 12.5898 78.1719 12.6445C78.2266 12.6914 78.2617 12.7422 78.2773 12.7969C78.3008 12.8984 78.3047 13.0156 78.2891 13.1484C78.2812 13.2812 78.2734 13.4023 78.2656 13.5117C78.2578 13.5742 78.25 13.6406 78.2422 13.7109C78.2344 13.7734 78.2227 13.8281 78.207 13.875C78.1914 13.9297 78.1719 13.9766 78.1484 14.0156C78.1328 14.0547 78.1211 14.0938 78.1133 14.1328C78.0977 14.2109 78.0859 14.2812 78.0781 14.3438C78.0781 14.3984 78.0703 14.4531 78.0547 14.5078C78.0156 14.625 77.957 14.7266 77.8789 14.8125C77.8086 14.8984 77.7539 15 77.7148 15.1172C77.6914 15.1719 77.6719 15.2344 77.6562 15.3047C77.6484 15.375 77.6367 15.4414 77.6211 15.5039C77.5742 15.6758 77.5234 15.8711 77.4688 16.0898C77.4141 16.3086 77.3945 16.5195 77.4102 16.7227C77.4727 16.707 77.5273 16.6953 77.5742 16.6875C77.6211 16.6797 77.6641 16.6758 77.7031 16.6758C77.7422 16.668 77.7852 16.668 77.832 16.6758C77.8867 16.6836 77.9531 16.6953 78.0312 16.7109C78.1484 16.7422 78.2773 16.7812 78.418 16.8281C78.5586 16.875 78.7031 16.9062 78.8516 16.9219C78.9609 16.9297 79.0703 16.9297 79.1797 16.9219C79.2969 16.9141 79.4102 16.918 79.5195 16.9336C79.6289 16.9492 79.7305 16.9688 79.8242 16.9922C79.9258 17.0078 80.0195 17.0078 80.1055 16.9922C80.1445 16.9766 80.1719 16.9648 80.1875 16.957C80.2109 16.9414 80.2383 16.9297 80.2695 16.9219C80.3945 16.8984 80.5391 16.9023 80.7031 16.9336C80.8672 16.957 81.0195 16.9766 81.1602 16.9922C81.1836 16.9922 81.2188 16.9922 81.2656 16.9922C81.3125 16.9844 81.3594 16.9844 81.4062 16.9922C81.4531 16.9922 81.4922 17.0039 81.5234 17.0273C81.5547 17.0508 81.5703 17.0859 81.5703 17.1328C81.5625 17.2031 81.5078 17.2578 81.4062 17.2969C81.3125 17.3359 81.2344 17.3633 81.1719 17.3789C81.0781 17.4023 80.9883 17.4141 80.9023 17.4141C80.8242 17.4141 80.7383 17.4258 80.6445 17.4492C80.5586 17.4727 80.4805 17.5039 80.4102 17.543C80.3477 17.5742 80.2812 17.5977 80.2109 17.6133C80.1875 17.6289 80.1641 17.6367 80.1406 17.6367C80.1172 17.6289 80.0898 17.6289 80.0586 17.6367C80.0117 17.6523 79.957 17.6797 79.8945 17.7188C79.832 17.75 79.7812 17.7695 79.7422 17.7773C79.6016 17.8086 79.4492 17.8008 79.2852 17.7539C79.1289 17.707 78.9688 17.6914 78.8047 17.707C78.7422 17.7148 78.6797 17.7305 78.6172 17.7539C78.5547 17.7695 78.4922 17.7852 78.4297 17.8008C78.3672 17.8164 78.3047 17.8281 78.2422 17.8359C78.1797 17.8438 78.125 17.8555 78.0781 17.8711L77.75 17.8945ZM83.4805 17.8945C83.4258 17.8867 83.3438 17.9062 83.2344 17.9531C83.1328 18 83.0391 18.0391 82.9531 18.0703C82.8672 18.0938 82.7734 18.1211 82.6719 18.1523C82.5703 18.1836 82.4727 18.1953 82.3789 18.1875C82.3164 18.1797 82.2578 18.1602 82.2031 18.1289C82.1484 18.1055 82.0977 18.0977 82.0508 18.1055C82.0117 18.1055 81.9766 18.1211 81.9453 18.1523C81.9141 18.1836 81.875 18.207 81.8281 18.2227C81.7422 18.2539 81.6406 18.2773 81.5234 18.293C81.4062 18.3164 81.293 18.3242 81.1836 18.3164C81.0742 18.3086 80.9844 18.2773 80.9141 18.2227C80.8516 18.1758 80.832 18.0977 80.8555 17.9883C80.8711 17.918 80.8984 17.8477 80.9375 17.7773C80.9844 17.6992 81.0273 17.6133 81.0664 17.5195C81.1289 17.3555 81.1758 17.1836 81.207 17.0039C81.2383 16.8164 81.2812 16.668 81.3359 16.5586C81.3672 16.4961 81.4141 16.4375 81.4766 16.3828C81.5391 16.3281 81.5742 16.2695 81.582 16.207C81.5898 16.1602 81.582 16.1211 81.5586 16.0898C81.5352 16.0586 81.5234 16.0156 81.5234 15.9609C81.5234 15.9219 81.5312 15.8828 81.5469 15.8438C81.5703 15.7969 81.5859 15.7422 81.5938 15.6797C81.6016 15.6172 81.6016 15.5625 81.5938 15.5156C81.5859 15.4609 81.5898 15.4141 81.6055 15.375C81.6211 15.3281 81.6445 15.2852 81.6758 15.2461C81.707 15.1992 81.7383 15.1562 81.7695 15.1172C81.8086 15.0703 81.8398 15.0195 81.8633 14.9648C81.8867 14.9102 81.8984 14.8477 81.8984 14.7773C81.8984 14.7383 81.9102 14.6758 81.9336 14.5898C81.957 14.4961 81.9648 14.4258 81.957 14.3789C81.9336 14.2148 81.9336 14.0781 81.957 13.9688C81.9883 13.8594 82.0234 13.7617 82.0625 13.6758C82.1094 13.582 82.1562 13.4883 82.2031 13.3945C82.2578 13.3008 82.2969 13.1875 82.3203 13.0547C82.3516 12.8906 82.375 12.7188 82.3906 12.5391C82.4062 12.3594 82.4336 12.1992 82.4727 12.0586C82.5195 11.9102 82.5859 11.793 82.6719 11.707C82.7656 11.6211 82.9062 11.5898 83.0938 11.6133C83.1719 11.707 83.2227 11.7969 83.2461 11.8828C83.2773 11.9688 83.3203 12.0664 83.375 12.1758C83.3984 12.2383 83.4609 12.293 83.5625 12.3398C83.6641 12.3867 83.7344 12.4375 83.7734 12.4922C83.8125 12.5391 83.8555 12.5898 83.9023 12.6445C83.957 12.6914 83.9922 12.7422 84.0078 12.7969C84.0312 12.8984 84.0352 13.0156 84.0195 13.1484C84.0117 13.2812 84.0039 13.4023 83.9961 13.5117C83.9883 13.5742 83.9805 13.6406 83.9727 13.7109C83.9648 13.7734 83.9531 13.8281 83.9375 13.875C83.9219 13.9297 83.9023 13.9766 83.8789 14.0156C83.8633 14.0547 83.8516 14.0938 83.8438 14.1328C83.8281 14.2109 83.8164 14.2812 83.8086 14.3438C83.8086 14.3984 83.8008 14.4531 83.7852 14.5078C83.7461 14.625 83.6875 14.7266 83.6094 14.8125C83.5391 14.8984 83.4844 15 83.4453 15.1172C83.4219 15.1719 83.4023 15.2344 83.3867 15.3047C83.3789 15.375 83.3672 15.4414 83.3516 15.5039C83.3047 15.6758 83.2539 15.8711 83.1992 16.0898C83.1445 16.3086 83.125 16.5195 83.1406 16.7227C83.2031 16.707 83.2578 16.6953 83.3047 16.6875C83.3516 16.6797 83.3945 16.6758 83.4336 16.6758C83.4727 16.668 83.5156 16.668 83.5625 16.6758C83.6172 16.6836 83.6836 16.6953 83.7617 16.7109C83.8789 16.7422 84.0078 16.7812 84.1484 16.8281C84.2891 16.875 84.4336 16.9062 84.582 16.9219C84.6914 16.9297 84.8008 16.9297 84.9102 16.9219C85.0273 16.9141 85.1406 16.918 85.25 16.9336C85.3594 16.9492 85.4609 16.9688 85.5547 16.9922C85.6562 17.0078 85.75 17.0078 85.8359 16.9922C85.875 16.9766 85.9023 16.9648 85.918 16.957C85.9414 16.9414 85.9688 16.9297 86 16.9219C86.125 16.8984 86.2695 16.9023 86.4336 16.9336C86.5977 16.957 86.75 16.9766 86.8906 16.9922C86.9141 16.9922 86.9492 16.9922 86.9961 16.9922C87.043 16.9844 87.0898 16.9844 87.1367 16.9922C87.1836 16.9922 87.2227 17.0039 87.2539 17.0273C87.2852 17.0508 87.3008 17.0859 87.3008 17.1328C87.293 17.2031 87.2383 17.2578 87.1367 17.2969C87.043 17.3359 86.9648 17.3633 86.9023 17.3789C86.8086 17.4023 86.7188 17.4141 86.6328 17.4141C86.5547 17.4141 86.4688 17.4258 86.375 17.4492C86.2891 17.4727 86.2109 17.5039 86.1406 17.543C86.0781 17.5742 86.0117 17.5977 85.9414 17.6133C85.918 17.6289 85.8945 17.6367 85.8711 17.6367C85.8477 17.6289 85.8203 17.6289 85.7891 17.6367C85.7422 17.6523 85.6875 17.6797 85.625 17.7188C85.5625 17.75 85.5117 17.7695 85.4727 17.7773C85.332 17.8086 85.1797 17.8008 85.0156 17.7539C84.8594 17.707 84.6992 17.6914 84.5352 17.707C84.4727 17.7148 84.4102 17.7305 84.3477 17.7539C84.2852 17.7695 84.2227 17.7852 84.1602 17.8008C84.0977 17.8164 84.0352 17.8281 83.9727 17.8359C83.9102 17.8438 83.8555 17.8555 83.8086 17.8711L83.4805 17.8945Z" fill="black"/>
</svg>
