<svg width="87" height="29" viewBox="0 0 87 29" fill="none" xmlns="http://www.w3.org/2000/svg">
<path d="M16.7031 17.7656C16.7812 17.8906 16.8711 18 16.9727 18.0938C17.082 18.1875 17.1914 18.2734 17.3008 18.3516C17.418 18.4375 17.5312 18.5234 17.6406 18.6094C17.7578 18.6953 17.8594 18.793 17.9453 18.9023C18.2109 18.9648 18.457 18.9531 18.6836 18.8672C18.9102 18.7891 19.1055 18.6953 19.2695 18.5859C19.3164 18.5547 19.3633 18.5156 19.4102 18.4688C19.4648 18.4219 19.5195 18.3828 19.5742 18.3516C19.6289 18.3203 19.6875 18.3008 19.75 18.293C19.8125 18.293 19.8789 18.3164 19.9492 18.3633C19.9336 18.4258 19.9102 18.5 19.8789 18.5859C19.8555 18.6719 19.8203 18.7461 19.7734 18.8086C19.7031 18.8867 19.6172 18.9688 19.5156 19.0547C19.4141 19.1484 19.3047 19.2344 19.1875 19.3125C19.0781 19.3906 18.9609 19.457 18.8359 19.5117C18.7188 19.5742 18.6016 19.6172 18.4844 19.6406C18.4453 19.6562 18.4062 19.6602 18.3672 19.6523C18.3281 19.6445 18.2852 19.6484 18.2383 19.6641C18.1133 19.6797 17.9844 19.707 17.8516 19.7461C17.7266 19.793 17.5977 19.8125 17.4648 19.8047C17.332 19.8047 17.1953 19.7734 17.0547 19.7109C16.9141 19.6562 16.8008 19.5977 16.7148 19.5352C16.668 19.4961 16.6289 19.4453 16.5977 19.3828C16.5742 19.3281 16.5547 19.2656 16.5391 19.1953C16.4844 19.2031 16.4297 19.2148 16.375 19.2305C16.3203 19.2461 16.2617 19.2383 16.1992 19.207C16.1602 19.1914 16.1367 19.168 16.1289 19.1367C16.1211 19.1133 16.0977 19.082 16.0586 19.043C16.043 19.0273 16.0156 19.0156 15.9766 19.0078C15.9453 19 15.9141 18.9844 15.8828 18.9609C15.8438 18.9375 15.8086 18.9023 15.7773 18.8555C15.7461 18.8164 15.7109 18.7852 15.6719 18.7617C15.5625 18.6758 15.4492 18.5977 15.332 18.5273C15.2227 18.4648 15.1445 18.3789 15.0977 18.2695C14.9023 18.3086 14.6562 18.3438 14.3594 18.375C14.0625 18.4141 13.7773 18.4141 13.5039 18.375C13.4414 18.3672 13.375 18.3516 13.3047 18.3281C13.2344 18.3125 13.1641 18.3047 13.0938 18.3047C12.9922 18.3047 12.8906 18.3008 12.7891 18.293C12.6875 18.2852 12.6172 18.2383 12.5781 18.1523C12.2812 18.0508 12.0195 17.918 11.793 17.7539C11.5664 17.582 11.3594 17.3906 11.1719 17.1797C11.0234 17.1406 10.9141 17.0703 10.8438 16.9688C10.8047 16.9141 10.7773 16.8516 10.7617 16.7812C10.7461 16.7031 10.7188 16.6406 10.6797 16.5938C10.6641 16.5625 10.6367 16.543 10.5977 16.5352C10.5664 16.5195 10.5391 16.5 10.5156 16.4766C10.4844 16.4453 10.4414 16.3984 10.3867 16.3359C10.332 16.2734 10.293 16.2109 10.2695 16.1484C10.2539 16.125 10.2461 16.0977 10.2461 16.0664C10.2461 16.0352 10.2383 16.0078 10.2227 15.9844C10.207 15.9531 10.1914 15.9336 10.1758 15.9258C10.1602 15.9102 10.1484 15.8906 10.1406 15.8672C10.1094 15.7734 10.0859 15.6562 10.0703 15.5156C10.0625 15.3672 10.0586 15.2383 10.0586 15.1289C10.0586 14.8242 10.0664 14.5156 10.082 14.2031C10.1055 13.8906 10.1445 13.5859 10.1992 13.2891C10.2617 12.9844 10.3398 12.6953 10.4336 12.4219C10.5273 12.1484 10.6445 11.9023 10.7852 11.6836C10.8945 11.5117 10.9922 11.3711 11.0781 11.2617C11.1719 11.1445 11.3047 11.0234 11.4766 10.8984C11.6016 10.7969 11.7148 10.707 11.8164 10.6289C11.9258 10.5508 12.0664 10.4922 12.2383 10.4531C12.3086 10.4141 12.3711 10.3711 12.4258 10.3242C12.4883 10.2695 12.5234 10.1836 12.5312 10.0664C12.6484 9.98047 12.793 9.89062 12.9648 9.79688C13.1445 9.69531 13.3125 9.61328 13.4688 9.55078C13.6953 9.44141 13.9414 9.34375 14.207 9.25781C14.4805 9.16406 14.7539 9.11328 15.0273 9.10547C15.1836 9.09766 15.3398 9.10156 15.4961 9.11719C15.6523 9.13281 15.8008 9.14844 15.9414 9.16406C16.1992 9.16406 16.3906 9.21094 16.5156 9.30469C16.6406 9.39062 16.7695 9.47656 16.9023 9.5625C17.082 9.53125 17.2383 9.5625 17.3711 9.65625C17.5039 9.75 17.625 9.83594 17.7344 9.91406C17.7734 9.9375 17.8086 9.95703 17.8398 9.97266C17.8789 9.98828 17.9141 10.0039 17.9453 10.0195C17.9922 10.0586 18.0312 10.1094 18.0625 10.1719C18.0938 10.2266 18.1328 10.2617 18.1797 10.2773C18.2266 10.293 18.2734 10.2969 18.3203 10.2891C18.3672 10.2812 18.4102 10.2852 18.4492 10.3008C18.4805 10.3164 18.5078 10.3477 18.5312 10.3945C18.5625 10.4414 18.5938 10.4805 18.625 10.5117C18.6641 10.5586 18.707 10.5977 18.7539 10.6289C18.8008 10.6523 18.8359 10.6836 18.8594 10.7227C18.875 10.7461 18.8906 10.7773 18.9062 10.8164C18.9219 10.8555 18.9375 10.8945 18.9531 10.9336C19 11.0117 19.043 11.0859 19.082 11.1562C19.1211 11.2266 19.1602 11.3164 19.1992 11.4258C19.2773 11.543 19.3281 11.6367 19.3516 11.707C19.3672 11.7695 19.375 11.8438 19.375 11.9297C19.375 12.0078 19.3828 12.0859 19.3984 12.1641C19.4219 12.2969 19.4453 12.4297 19.4688 12.5625C19.4922 12.6953 19.5 12.8438 19.4922 13.0078C19.4844 13.0625 19.4727 13.1172 19.457 13.1719C19.4492 13.2188 19.4414 13.2734 19.4336 13.3359C19.4336 13.3984 19.4375 13.457 19.4453 13.5117C19.4531 13.5664 19.4492 13.625 19.4336 13.6875C19.3945 13.9141 19.3203 14.1328 19.2109 14.3438C19.1094 14.5547 19.0039 14.7617 18.8945 14.9648C18.8398 15.0664 18.7891 15.1719 18.7422 15.2812C18.6953 15.3828 18.6484 15.4805 18.6016 15.5742C18.5547 15.6836 18.4922 15.7734 18.4141 15.8438C18.3438 15.9062 18.2773 15.9805 18.2148 16.0664C18.1992 16.0977 18.1875 16.1289 18.1797 16.1602C18.1719 16.1914 18.1602 16.2266 18.1445 16.2656C18.082 16.3906 18.0039 16.5156 17.9102 16.6406C17.8164 16.7656 17.7188 16.8828 17.6172 16.9922C17.5859 17.0312 17.5586 17.0742 17.5352 17.1211C17.5117 17.1602 17.4844 17.1953 17.4531 17.2266C17.3594 17.3438 17.2344 17.4414 17.0781 17.5195C16.9297 17.5898 16.8047 17.6719 16.7031 17.7656ZM14.4883 10.6992C14.332 10.8086 14.1914 10.9062 14.0664 10.9922C13.9492 11.0781 13.8281 11.1797 13.7031 11.2969C13.6641 11.3359 13.625 11.375 13.5859 11.4141C13.5469 11.4531 13.5156 11.4922 13.4922 11.5312C13.4609 11.5703 13.4375 11.6211 13.4219 11.6836C13.4062 11.7383 13.3867 11.793 13.3633 11.8477C13.3398 11.9023 13.3047 11.9453 13.2578 11.9766C13.2109 12.0078 13.168 12.0508 13.1289 12.1055C13.0898 12.1523 13.0508 12.2227 13.0117 12.3164C12.9805 12.4023 12.9414 12.4883 12.8945 12.5742C12.832 12.707 12.7734 12.832 12.7188 12.9492C12.6641 13.0664 12.6172 13.207 12.5781 13.3711C12.5469 13.4805 12.5117 13.6094 12.4727 13.7578C12.4414 13.9062 12.4336 14.0469 12.4492 14.1797C12.457 14.2266 12.4688 14.2695 12.4844 14.3086C12.5078 14.3398 12.5234 14.375 12.5312 14.4141C12.5469 14.5625 12.5312 14.6914 12.4844 14.8008C12.4375 14.9102 12.4102 15.0391 12.4023 15.1875C12.3945 15.2891 12.3984 15.3867 12.4141 15.4805C12.4375 15.5664 12.4648 15.6523 12.4961 15.7383C12.5273 15.8164 12.5586 15.8906 12.5898 15.9609C12.6289 16.0312 12.6602 16.1016 12.6836 16.1719C12.707 16.2422 12.7344 16.3125 12.7656 16.3828C12.7969 16.4453 12.8359 16.4922 12.8828 16.5234C13 16.5078 13.1211 16.4766 13.2461 16.4297C13.3711 16.3828 13.5 16.332 13.6328 16.2773C13.7656 16.2227 13.8945 16.1602 14.0195 16.0898C14.1523 16.0195 14.2852 15.9922 14.418 16.0078C14.457 16.0156 14.5 16.0312 14.5469 16.0547C14.6016 16.0703 14.6523 16.0859 14.6992 16.1016C14.8242 16.1484 14.9375 16.1797 15.0391 16.1953C15.1406 16.2109 15.2227 16.2695 15.2852 16.3711C15.3008 16.4648 15.3438 16.5391 15.4141 16.5938C15.4844 16.6484 15.5391 16.7109 15.5781 16.7812C15.7266 16.7188 15.8359 16.6328 15.9062 16.5234C15.9844 16.4062 16.0742 16.2539 16.1758 16.0664C16.2617 15.9258 16.3633 15.7539 16.4805 15.5508C16.5977 15.3477 16.6758 15.1523 16.7148 14.9648C16.7539 14.7617 16.7812 14.5547 16.7969 14.3438C16.8203 14.125 16.8516 13.9141 16.8906 13.7109C16.9219 13.5156 16.9531 13.3203 16.9844 13.125C17.0156 12.9297 17.0508 12.7383 17.0898 12.5508C17.1055 12.4883 17.1211 12.4297 17.1367 12.375C17.1602 12.3125 17.1719 12.25 17.1719 12.1875C17.1797 12.1172 17.1797 12.0391 17.1719 11.9531C17.1641 11.8594 17.1523 11.7734 17.1367 11.6953C17.1211 11.5859 17.1016 11.4727 17.0781 11.3555C17.0547 11.2305 17.0273 11.1289 16.9961 11.0508C16.9336 10.8555 16.8398 10.7227 16.7148 10.6523C16.5977 10.582 16.4609 10.5039 16.3047 10.418C16.2422 10.3867 16.1875 10.3516 16.1406 10.3125C16.0938 10.2656 16.0508 10.2383 16.0117 10.2305C15.918 10.2148 15.8203 10.2266 15.7188 10.2656C15.625 10.2969 15.5352 10.3047 15.4492 10.2891C15.4102 10.2891 15.375 10.2773 15.3438 10.2539C15.3125 10.2227 15.2695 10.2148 15.2148 10.2305C15.1289 10.3477 15.0195 10.4336 14.8867 10.4883C14.7539 10.543 14.6211 10.6133 14.4883 10.6992ZM25.5977 14.8828C25.7695 15.0156 25.9453 15.1484 26.125 15.2812C26.3125 15.4141 26.4609 15.5742 26.5703 15.7617C26.5469 15.832 26.543 15.8906 26.5586 15.9375C26.5742 15.9766 26.5977 16.0156 26.6289 16.0547C26.668 16.0859 26.7031 16.1211 26.7344 16.1602C26.7734 16.1914 26.8008 16.2344 26.8164 16.2891C26.8398 16.3906 26.832 16.5078 26.793 16.6406C26.7539 16.7656 26.7266 16.8906 26.7109 17.0156C26.6953 17.0781 26.6836 17.1445 26.6758 17.2148C26.6758 17.2773 26.668 17.3398 26.6523 17.4023C26.6211 17.5664 26.5977 17.7227 26.582 17.8711C26.5664 18.0195 26.5859 18.1758 26.6406 18.3398C26.6797 18.4648 26.7461 18.6016 26.8398 18.75C26.9414 18.9062 27.043 19.0078 27.1445 19.0547C27.1836 19.0781 27.2148 19.0859 27.2383 19.0781C27.2617 19.0781 27.293 19.0859 27.332 19.1016C27.3789 19.125 27.4141 19.1602 27.4375 19.207C27.4688 19.2539 27.5195 19.2891 27.5898 19.3125C27.6992 19.2422 27.8203 19.2227 27.9531 19.2539C28.0859 19.293 28.2188 19.3086 28.3516 19.3008C28.3906 19.3008 28.4258 19.2891 28.457 19.2656C28.4883 19.25 28.5195 19.2422 28.5508 19.2422C28.7305 19.2266 28.9141 19.2109 29.1016 19.1953C29.2969 19.1797 29.4844 19.1445 29.6641 19.0898C29.75 19.0664 29.8398 19.0273 29.9336 18.9727C30.0273 18.918 30.1211 18.8633 30.2148 18.8086C30.3398 18.7305 30.4648 18.6484 30.5898 18.5625C30.7227 18.4766 30.8711 18.4609 31.0352 18.5156C31.043 18.6641 31.0195 18.7812 30.9648 18.8672C30.9102 18.9609 30.8398 19.0391 30.7539 19.1016C30.668 19.1719 30.5781 19.2383 30.4844 19.3008C30.3906 19.3633 30.3125 19.4336 30.25 19.5117C30.1094 19.5508 29.9961 19.6016 29.9102 19.6641C29.8242 19.7344 29.7266 19.8047 29.6172 19.875C29.5547 19.9062 29.4922 19.9297 29.4297 19.9453C29.375 19.9609 29.3203 19.9883 29.2656 20.0273C29.2031 20.0586 29.1484 20.1016 29.1016 20.1562C29.0547 20.2109 29.0039 20.2578 28.9492 20.2969C28.8867 20.3359 28.8125 20.3594 28.7266 20.3672C28.6484 20.3828 28.5742 20.3984 28.5039 20.4141C28.293 20.4766 28.0703 20.5273 27.8359 20.5664C27.6016 20.6133 27.3633 20.6406 27.1211 20.6484C26.8867 20.6641 26.6523 20.6523 26.418 20.6133C26.1836 20.582 25.9609 20.5195 25.75 20.4258C25.6328 20.3789 25.5352 20.3164 25.457 20.2383C25.3867 20.168 25.3086 20.0898 25.2227 20.0039C25.1211 19.918 25.0117 19.8164 24.8945 19.6992C24.7852 19.5898 24.6992 19.4805 24.6367 19.3711C24.6133 19.3086 24.5898 19.2344 24.5664 19.1484C24.5508 19.0625 24.5312 18.9766 24.5078 18.8906C24.4844 18.8047 24.4531 18.707 24.4141 18.5977C24.3828 18.4961 24.3672 18.3867 24.3672 18.2695C24.3594 18.0742 24.375 17.8711 24.4141 17.6602C24.4609 17.4414 24.5 17.2305 24.5312 17.0273C24.5703 16.8164 24.5898 16.6172 24.5898 16.4297C24.5898 16.2344 24.5508 16.0625 24.4727 15.9141C24.4492 15.8672 24.4141 15.8242 24.3672 15.7852C24.3281 15.7383 24.2891 15.6875 24.25 15.6328C24.1641 15.5234 24.0703 15.4258 23.9688 15.3398C23.8672 15.2461 23.7266 15.1875 23.5469 15.1641C23.4219 15.1484 23.2812 15.1484 23.125 15.1641C22.9688 15.1719 22.8555 15.2031 22.7852 15.2578C22.6758 15.3203 22.6133 15.4219 22.5977 15.5625C22.5898 15.6953 22.5703 15.8359 22.5391 15.9844C22.5 16.1641 22.4453 16.3281 22.375 16.4766C22.3125 16.625 22.293 16.793 22.3164 16.9805C22.332 17.0586 22.3555 17.1523 22.3867 17.2617C22.418 17.3711 22.4492 17.457 22.4805 17.5195C22.5039 17.5742 22.543 17.6406 22.5977 17.7188C22.6523 17.7969 22.6602 17.8672 22.6211 17.9297C22.5742 17.9922 22.4961 18.0156 22.3867 18C22.2773 17.9844 22.168 17.9727 22.0586 17.9648C21.9258 17.957 21.8125 17.9531 21.7188 17.9531C21.6328 17.9453 21.5508 17.9453 21.4727 17.9531C21.3945 17.9531 21.3125 17.9609 21.2266 17.9766C21.1406 17.9844 21.0352 17.9961 20.9102 18.0117C20.8477 18.0195 20.7969 18.0273 20.7578 18.0352C20.7266 18.043 20.6953 18.0508 20.6641 18.0586C20.6406 18.0742 20.6133 18.0859 20.582 18.0938C20.5586 18.1094 20.5195 18.125 20.4648 18.1406C20.418 18.1562 20.375 18.1758 20.3359 18.1992C20.2969 18.2305 20.2578 18.2539 20.2188 18.2695C20.0859 18.3086 19.9414 18.332 19.7852 18.3398C19.6289 18.3555 19.4805 18.3633 19.3398 18.3633C19.207 18.3711 19.0742 18.3672 18.9414 18.3516C18.8008 18.3438 18.6758 18.3203 18.5664 18.2812C18.582 18.1875 18.625 18.125 18.6953 18.0938C18.7656 18.0625 18.8242 18.0195 18.8711 17.9648C19.0742 17.9258 19.2812 17.8398 19.4922 17.707C19.6953 17.5664 19.8281 17.3945 19.8906 17.1914C19.9141 17.1211 19.9297 17.0469 19.9375 16.9688C19.9453 16.8828 19.957 16.8008 19.9727 16.7227C20.0117 16.5195 20.0508 16.3125 20.0898 16.1016C20.1289 15.8906 20.1797 15.6797 20.2422 15.4688C20.2578 15.4297 20.2773 15.3945 20.3008 15.3633C20.3242 15.332 20.3438 15.2969 20.3594 15.2578C20.4062 15.125 20.4336 14.9883 20.4414 14.8477C20.457 14.6992 20.4844 14.5586 20.5234 14.4258C20.5625 14.3242 20.6016 14.2305 20.6406 14.1445C20.6797 14.0508 20.7109 13.957 20.7344 13.8633C20.7578 13.7617 20.7773 13.6641 20.793 13.5703C20.8164 13.4766 20.8555 13.3906 20.9102 13.3125C20.9258 13.1797 20.9414 13.0547 20.957 12.9375C20.9727 12.8203 20.9766 12.6836 20.9688 12.5273C21.0547 12.4258 21.1328 12.3203 21.2031 12.2109C21.2812 12.0938 21.332 11.957 21.3555 11.8008C21.3711 11.7148 21.3672 11.6328 21.3438 11.5547C21.3281 11.4766 21.3203 11.3906 21.3203 11.2969C21.3281 11.0938 21.3438 10.9141 21.3672 10.7578C21.3984 10.5938 21.4219 10.4102 21.4375 10.207C21.375 10.0664 21.2773 9.97266 21.1445 9.92578C21.0195 9.87109 20.8828 9.79688 20.7344 9.70312C20.7109 9.69531 20.6797 9.67969 20.6406 9.65625C20.6016 9.63281 20.5586 9.60938 20.5117 9.58594C20.4727 9.55469 20.4375 9.52344 20.4062 9.49219C20.3828 9.46094 20.3711 9.43359 20.3711 9.41016C20.3789 9.35547 20.4102 9.3125 20.4648 9.28125C20.5273 9.24219 20.5938 9.21875 20.6641 9.21094C20.7422 9.19531 20.8203 9.19141 20.8984 9.19922C20.9766 9.19922 21.043 9.20312 21.0977 9.21094C21.293 9.25 21.4805 9.28906 21.6602 9.32812C21.8398 9.36719 22.0234 9.40234 22.2109 9.43359C22.4062 9.45703 22.6094 9.47266 22.8203 9.48047C23.0391 9.48828 23.2852 9.48047 23.5586 9.45703C23.6602 9.44922 23.7461 9.4375 23.8164 9.42188C23.8945 9.39844 23.9805 9.38281 24.0742 9.375C24.207 9.36719 24.3359 9.35547 24.4609 9.33984C24.5938 9.31641 24.7266 9.3125 24.8594 9.32812C25.1016 9.35156 25.3164 9.35156 25.5039 9.32812C25.6914 9.29688 25.8906 9.29297 26.1016 9.31641C26.2031 9.33203 26.2969 9.36328 26.3828 9.41016C26.4766 9.44922 26.5664 9.49219 26.6523 9.53906C26.7461 9.58594 26.8359 9.62891 26.9219 9.66797C27.0156 9.69922 27.1094 9.71875 27.2031 9.72656C27.3438 9.8125 27.4766 9.92188 27.6016 10.0547C27.7344 10.1875 27.8555 10.3359 27.9648 10.5C28.0508 10.6328 28.1328 10.7852 28.2109 10.957C28.2891 11.1289 28.3477 11.2734 28.3867 11.3906C28.4414 11.5312 28.4648 11.6719 28.457 11.8125C28.4492 11.9453 28.4297 12.0742 28.3984 12.1992C28.3359 12.4258 28.2578 12.6289 28.1641 12.8086C28.0703 12.9883 27.9648 13.1602 27.8477 13.3242C27.7383 13.4805 27.6211 13.6406 27.4961 13.8047C27.3789 13.9609 27.2695 14.125 27.168 14.2969C27.1055 14.3203 27.043 14.3359 26.9805 14.3438C26.9258 14.3438 26.8711 14.3555 26.8164 14.3789C26.7305 14.418 26.6562 14.4766 26.5938 14.5547C26.5312 14.625 26.4492 14.6758 26.3477 14.707C26.3086 14.7227 26.2656 14.7266 26.2188 14.7188C26.1797 14.7109 26.1406 14.7109 26.1016 14.7188C26.0156 14.7422 25.9336 14.7734 25.8555 14.8125C25.7852 14.8438 25.6992 14.8672 25.5977 14.8828ZM24.9062 13.8867C25.0312 13.7305 25.168 13.5859 25.3164 13.4531C25.4648 13.3125 25.582 13.1523 25.668 12.9727C25.707 12.8867 25.7383 12.7852 25.7617 12.668C25.793 12.543 25.8203 12.4258 25.8438 12.3164C25.8828 12.082 25.8867 11.875 25.8555 11.6953C25.8242 11.5156 25.7695 11.3555 25.6914 11.2148C25.6133 11.0742 25.5156 10.9531 25.3984 10.8516C25.2812 10.75 25.1523 10.6602 25.0117 10.582C24.9023 10.5195 24.7891 10.4531 24.6719 10.3828C24.5625 10.3047 24.4258 10.2891 24.2617 10.3359C24.1445 10.4062 24.0469 10.5195 23.9688 10.6758C23.8984 10.832 23.832 10.9766 23.7695 11.1094C23.7461 11.1641 23.7188 11.2188 23.6875 11.2734C23.6641 11.3281 23.6445 11.375 23.6289 11.4141C23.6211 11.4688 23.6211 11.5273 23.6289 11.5898C23.6367 11.6445 23.6328 11.7031 23.6172 11.7656C23.6016 11.8203 23.5625 11.8594 23.5 11.8828C23.4375 11.8984 23.4023 11.9336 23.3945 11.9883C23.3945 12.043 23.4141 12.0938 23.4531 12.1406C23.5 12.1797 23.5234 12.2305 23.5234 12.293C23.5156 12.3867 23.4805 12.4922 23.418 12.6094C23.3633 12.7266 23.3281 12.8477 23.3125 12.9727C23.2969 13.0898 23.2695 13.2031 23.2305 13.3125C23.1992 13.4219 23.1641 13.5312 23.125 13.6406C23.0938 13.75 23.0625 13.8633 23.0312 13.9805C23.0078 14.0898 23 14.2031 23.0078 14.3203C23.1641 14.3516 23.332 14.3633 23.5117 14.3555C23.6914 14.3477 23.8672 14.3242 24.0391 14.2852C24.2109 14.2461 24.3711 14.1953 24.5195 14.1328C24.6758 14.0625 24.8047 13.9805 24.9062 13.8867Z" fill="white"/>
<path d="M4.42274 5.55539L16.0173 1.93211C17.9594 1.32518 20.0406 1.32518 21.9827 1.93211L33.5773 5.55539C34.5046 5.84518 35.3242 6.4053 35.9312 7.16396C36.6231 8.02882 37 9.10341 37 10.211V19.289C37 20.3966 36.6231 21.4712 35.9312 22.336C35.3242 23.0947 34.5046 23.6548 33.5773 23.9446L21.9827 27.5679C20.0406 28.1748 17.9594 28.1748 16.0173 27.5679L4.42274 23.9446C3.49541 23.6548 2.67576 23.0947 2.06884 22.336C1.37695 21.4712 1 20.3966 1 19.289V10.211C1 9.10341 1.37695 8.02882 2.06884 7.16396C2.67576 6.4053 3.49541 5.84518 4.42274 5.55539Z" stroke="white"/>
<path d="M49.7031 17.7656C49.7812 17.8906 49.8711 18 49.9727 18.0938C50.082 18.1875 50.1914 18.2734 50.3008 18.3516C50.418 18.4375 50.5312 18.5234 50.6406 18.6094C50.7578 18.6953 50.8594 18.793 50.9453 18.9023C51.2109 18.9648 51.457 18.9531 51.6836 18.8672C51.9102 18.7891 52.1055 18.6953 52.2695 18.5859C52.3164 18.5547 52.3633 18.5156 52.4102 18.4688C52.4648 18.4219 52.5195 18.3828 52.5742 18.3516C52.6289 18.3203 52.6875 18.3008 52.75 18.293C52.8125 18.293 52.8789 18.3164 52.9492 18.3633C52.9336 18.4258 52.9102 18.5 52.8789 18.5859C52.8555 18.6719 52.8203 18.7461 52.7734 18.8086C52.7031 18.8867 52.6172 18.9688 52.5156 19.0547C52.4141 19.1484 52.3047 19.2344 52.1875 19.3125C52.0781 19.3906 51.9609 19.457 51.8359 19.5117C51.7188 19.5742 51.6016 19.6172 51.4844 19.6406C51.4453 19.6562 51.4062 19.6602 51.3672 19.6523C51.3281 19.6445 51.2852 19.6484 51.2383 19.6641C51.1133 19.6797 50.9844 19.707 50.8516 19.7461C50.7266 19.793 50.5977 19.8125 50.4648 19.8047C50.332 19.8047 50.1953 19.7734 50.0547 19.7109C49.9141 19.6562 49.8008 19.5977 49.7148 19.5352C49.668 19.4961 49.6289 19.4453 49.5977 19.3828C49.5742 19.3281 49.5547 19.2656 49.5391 19.1953C49.4844 19.2031 49.4297 19.2148 49.375 19.2305C49.3203 19.2461 49.2617 19.2383 49.1992 19.207C49.1602 19.1914 49.1367 19.168 49.1289 19.1367C49.1211 19.1133 49.0977 19.082 49.0586 19.043C49.043 19.0273 49.0156 19.0156 48.9766 19.0078C48.9453 19 48.9141 18.9844 48.8828 18.9609C48.8438 18.9375 48.8086 18.9023 48.7773 18.8555C48.7461 18.8164 48.7109 18.7852 48.6719 18.7617C48.5625 18.6758 48.4492 18.5977 48.332 18.5273C48.2227 18.4648 48.1445 18.3789 48.0977 18.2695C47.9023 18.3086 47.6562 18.3438 47.3594 18.375C47.0625 18.4141 46.7773 18.4141 46.5039 18.375C46.4414 18.3672 46.375 18.3516 46.3047 18.3281C46.2344 18.3125 46.1641 18.3047 46.0938 18.3047C45.9922 18.3047 45.8906 18.3008 45.7891 18.293C45.6875 18.2852 45.6172 18.2383 45.5781 18.1523C45.2812 18.0508 45.0195 17.918 44.793 17.7539C44.5664 17.582 44.3594 17.3906 44.1719 17.1797C44.0234 17.1406 43.9141 17.0703 43.8438 16.9688C43.8047 16.9141 43.7773 16.8516 43.7617 16.7812C43.7461 16.7031 43.7188 16.6406 43.6797 16.5938C43.6641 16.5625 43.6367 16.543 43.5977 16.5352C43.5664 16.5195 43.5391 16.5 43.5156 16.4766C43.4844 16.4453 43.4414 16.3984 43.3867 16.3359C43.332 16.2734 43.293 16.2109 43.2695 16.1484C43.2539 16.125 43.2461 16.0977 43.2461 16.0664C43.2461 16.0352 43.2383 16.0078 43.2227 15.9844C43.207 15.9531 43.1914 15.9336 43.1758 15.9258C43.1602 15.9102 43.1484 15.8906 43.1406 15.8672C43.1094 15.7734 43.0859 15.6562 43.0703 15.5156C43.0625 15.3672 43.0586 15.2383 43.0586 15.1289C43.0586 14.8242 43.0664 14.5156 43.082 14.2031C43.1055 13.8906 43.1445 13.5859 43.1992 13.2891C43.2617 12.9844 43.3398 12.6953 43.4336 12.4219C43.5273 12.1484 43.6445 11.9023 43.7852 11.6836C43.8945 11.5117 43.9922 11.3711 44.0781 11.2617C44.1719 11.1445 44.3047 11.0234 44.4766 10.8984C44.6016 10.7969 44.7148 10.707 44.8164 10.6289C44.9258 10.5508 45.0664 10.4922 45.2383 10.4531C45.3086 10.4141 45.3711 10.3711 45.4258 10.3242C45.4883 10.2695 45.5234 10.1836 45.5312 10.0664C45.6484 9.98047 45.793 9.89062 45.9648 9.79688C46.1445 9.69531 46.3125 9.61328 46.4688 9.55078C46.6953 9.44141 46.9414 9.34375 47.207 9.25781C47.4805 9.16406 47.7539 9.11328 48.0273 9.10547C48.1836 9.09766 48.3398 9.10156 48.4961 9.11719C48.6523 9.13281 48.8008 9.14844 48.9414 9.16406C49.1992 9.16406 49.3906 9.21094 49.5156 9.30469C49.6406 9.39062 49.7695 9.47656 49.9023 9.5625C50.082 9.53125 50.2383 9.5625 50.3711 9.65625C50.5039 9.75 50.625 9.83594 50.7344 9.91406C50.7734 9.9375 50.8086 9.95703 50.8398 9.97266C50.8789 9.98828 50.9141 10.0039 50.9453 10.0195C50.9922 10.0586 51.0312 10.1094 51.0625 10.1719C51.0938 10.2266 51.1328 10.2617 51.1797 10.2773C51.2266 10.293 51.2734 10.2969 51.3203 10.2891C51.3672 10.2812 51.4102 10.2852 51.4492 10.3008C51.4805 10.3164 51.5078 10.3477 51.5312 10.3945C51.5625 10.4414 51.5938 10.4805 51.625 10.5117C51.6641 10.5586 51.707 10.5977 51.7539 10.6289C51.8008 10.6523 51.8359 10.6836 51.8594 10.7227C51.875 10.7461 51.8906 10.7773 51.9062 10.8164C51.9219 10.8555 51.9375 10.8945 51.9531 10.9336C52 11.0117 52.043 11.0859 52.082 11.1562C52.1211 11.2266 52.1602 11.3164 52.1992 11.4258C52.2773 11.543 52.3281 11.6367 52.3516 11.707C52.3672 11.7695 52.375 11.8438 52.375 11.9297C52.375 12.0078 52.3828 12.0859 52.3984 12.1641C52.4219 12.2969 52.4453 12.4297 52.4688 12.5625C52.4922 12.6953 52.5 12.8438 52.4922 13.0078C52.4844 13.0625 52.4727 13.1172 52.457 13.1719C52.4492 13.2188 52.4414 13.2734 52.4336 13.3359C52.4336 13.3984 52.4375 13.457 52.4453 13.5117C52.4531 13.5664 52.4492 13.625 52.4336 13.6875C52.3945 13.9141 52.3203 14.1328 52.2109 14.3438C52.1094 14.5547 52.0039 14.7617 51.8945 14.9648C51.8398 15.0664 51.7891 15.1719 51.7422 15.2812C51.6953 15.3828 51.6484 15.4805 51.6016 15.5742C51.5547 15.6836 51.4922 15.7734 51.4141 15.8438C51.3438 15.9062 51.2773 15.9805 51.2148 16.0664C51.1992 16.0977 51.1875 16.1289 51.1797 16.1602C51.1719 16.1914 51.1602 16.2266 51.1445 16.2656C51.082 16.3906 51.0039 16.5156 50.9102 16.6406C50.8164 16.7656 50.7188 16.8828 50.6172 16.9922C50.5859 17.0312 50.5586 17.0742 50.5352 17.1211C50.5117 17.1602 50.4844 17.1953 50.4531 17.2266C50.3594 17.3438 50.2344 17.4414 50.0781 17.5195C49.9297 17.5898 49.8047 17.6719 49.7031 17.7656ZM47.4883 10.6992C47.332 10.8086 47.1914 10.9062 47.0664 10.9922C46.9492 11.0781 46.8281 11.1797 46.7031 11.2969C46.6641 11.3359 46.625 11.375 46.5859 11.4141C46.5469 11.4531 46.5156 11.4922 46.4922 11.5312C46.4609 11.5703 46.4375 11.6211 46.4219 11.6836C46.4062 11.7383 46.3867 11.793 46.3633 11.8477C46.3398 11.9023 46.3047 11.9453 46.2578 11.9766C46.2109 12.0078 46.168 12.0508 46.1289 12.1055C46.0898 12.1523 46.0508 12.2227 46.0117 12.3164C45.9805 12.4023 45.9414 12.4883 45.8945 12.5742C45.832 12.707 45.7734 12.832 45.7188 12.9492C45.6641 13.0664 45.6172 13.207 45.5781 13.3711C45.5469 13.4805 45.5117 13.6094 45.4727 13.7578C45.4414 13.9062 45.4336 14.0469 45.4492 14.1797C45.457 14.2266 45.4688 14.2695 45.4844 14.3086C45.5078 14.3398 45.5234 14.375 45.5312 14.4141C45.5469 14.5625 45.5312 14.6914 45.4844 14.8008C45.4375 14.9102 45.4102 15.0391 45.4023 15.1875C45.3945 15.2891 45.3984 15.3867 45.4141 15.4805C45.4375 15.5664 45.4648 15.6523 45.4961 15.7383C45.5273 15.8164 45.5586 15.8906 45.5898 15.9609C45.6289 16.0312 45.6602 16.1016 45.6836 16.1719C45.707 16.2422 45.7344 16.3125 45.7656 16.3828C45.7969 16.4453 45.8359 16.4922 45.8828 16.5234C46 16.5078 46.1211 16.4766 46.2461 16.4297C46.3711 16.3828 46.5 16.332 46.6328 16.2773C46.7656 16.2227 46.8945 16.1602 47.0195 16.0898C47.1523 16.0195 47.2852 15.9922 47.418 16.0078C47.457 16.0156 47.5 16.0312 47.5469 16.0547C47.6016 16.0703 47.6523 16.0859 47.6992 16.1016C47.8242 16.1484 47.9375 16.1797 48.0391 16.1953C48.1406 16.2109 48.2227 16.2695 48.2852 16.3711C48.3008 16.4648 48.3438 16.5391 48.4141 16.5938C48.4844 16.6484 48.5391 16.7109 48.5781 16.7812C48.7266 16.7188 48.8359 16.6328 48.9062 16.5234C48.9844 16.4062 49.0742 16.2539 49.1758 16.0664C49.2617 15.9258 49.3633 15.7539 49.4805 15.5508C49.5977 15.3477 49.6758 15.1523 49.7148 14.9648C49.7539 14.7617 49.7812 14.5547 49.7969 14.3438C49.8203 14.125 49.8516 13.9141 49.8906 13.7109C49.9219 13.5156 49.9531 13.3203 49.9844 13.125C50.0156 12.9297 50.0508 12.7383 50.0898 12.5508C50.1055 12.4883 50.1211 12.4297 50.1367 12.375C50.1602 12.3125 50.1719 12.25 50.1719 12.1875C50.1797 12.1172 50.1797 12.0391 50.1719 11.9531C50.1641 11.8594 50.1523 11.7734 50.1367 11.6953C50.1211 11.5859 50.1016 11.4727 50.0781 11.3555C50.0547 11.2305 50.0273 11.1289 49.9961 11.0508C49.9336 10.8555 49.8398 10.7227 49.7148 10.6523C49.5977 10.582 49.4609 10.5039 49.3047 10.418C49.2422 10.3867 49.1875 10.3516 49.1406 10.3125C49.0938 10.2656 49.0508 10.2383 49.0117 10.2305C48.918 10.2148 48.8203 10.2266 48.7188 10.2656C48.625 10.2969 48.5352 10.3047 48.4492 10.2891C48.4102 10.2891 48.375 10.2773 48.3438 10.2539C48.3125 10.2227 48.2695 10.2148 48.2148 10.2305C48.1289 10.3477 48.0195 10.4336 47.8867 10.4883C47.7539 10.543 47.6211 10.6133 47.4883 10.6992ZM57.918 13.4297C58.0273 13.5703 58.0547 13.7148 58 13.8633C57.9453 14.0039 57.8555 14.1094 57.7305 14.1797C57.6992 14.1953 57.668 14.207 57.6367 14.2148C57.6055 14.2148 57.5703 14.2227 57.5312 14.2383C57.4531 14.2773 57.3867 14.3281 57.332 14.3906C57.2852 14.4453 57.2305 14.4805 57.168 14.4961C57.1055 14.5039 57.0312 14.5 56.9453 14.4844C56.8672 14.4609 56.7852 14.4414 56.6992 14.4258C56.5195 14.4102 56.3242 14.4062 56.1133 14.4141C55.9102 14.4219 55.7188 14.4258 55.5391 14.4258C55.3828 14.4258 55.2422 14.418 55.1172 14.4023C54.9922 14.3789 54.8867 14.3359 54.8008 14.2734C54.6133 14.3281 54.4141 14.375 54.2031 14.4141C53.9922 14.4531 53.7812 14.4609 53.5703 14.4375C53.4375 14.4219 53.3086 14.3906 53.1836 14.3438C53.0664 14.2969 52.9492 14.2734 52.832 14.2734C52.8164 14.1797 52.8203 14.0977 52.8438 14.0273C52.875 13.9492 52.9141 13.8789 52.9609 13.8164C53.0078 13.7461 53.0547 13.6836 53.1016 13.6289C53.1484 13.5742 53.1914 13.5156 53.2305 13.4531C53.3086 13.4219 53.3867 13.4062 53.4648 13.4062C53.5508 13.3984 53.6328 13.4023 53.7109 13.418C53.7969 13.4258 53.8828 13.4375 53.9688 13.4531C54.0547 13.4688 54.1445 13.4727 54.2383 13.4648C54.2852 13.4648 54.3281 13.457 54.3672 13.4414C54.4141 13.418 54.4609 13.4062 54.5078 13.4062C54.5859 13.3984 54.6641 13.3984 54.7422 13.4062C54.8203 13.4062 54.9023 13.4062 54.9883 13.4062C55.0664 13.4062 55.1484 13.4023 55.2344 13.3945C55.3281 13.3867 55.3945 13.3906 55.4336 13.4062C55.4883 13.4141 55.5352 13.4375 55.5742 13.4766C55.6211 13.5156 55.6719 13.5352 55.7266 13.5352C55.7656 13.5352 55.8008 13.5234 55.832 13.5C55.8711 13.4688 55.918 13.4453 55.9727 13.4297C56.0352 13.4141 56.1094 13.4062 56.1953 13.4062C56.2891 13.3984 56.3789 13.3945 56.4648 13.3945C56.5508 13.3945 56.6328 13.3945 56.7109 13.3945C56.7891 13.3945 56.8516 13.3906 56.8984 13.3828C57.0703 13.3672 57.2383 13.3672 57.4023 13.3828C57.5664 13.3984 57.7383 13.4141 57.918 13.4297ZM64.1406 14.8828C64.3125 15.0156 64.4883 15.1484 64.668 15.2812C64.8555 15.4141 65.0039 15.5742 65.1133 15.7617C65.0898 15.832 65.0859 15.8906 65.1016 15.9375C65.1172 15.9766 65.1406 16.0156 65.1719 16.0547C65.2109 16.0859 65.2461 16.1211 65.2773 16.1602C65.3164 16.1914 65.3438 16.2344 65.3594 16.2891C65.3828 16.3906 65.375 16.5078 65.3359 16.6406C65.2969 16.7656 65.2695 16.8906 65.2539 17.0156C65.2383 17.0781 65.2266 17.1445 65.2188 17.2148C65.2188 17.2773 65.2109 17.3398 65.1953 17.4023C65.1641 17.5664 65.1406 17.7227 65.125 17.8711C65.1094 18.0195 65.1289 18.1758 65.1836 18.3398C65.2227 18.4648 65.2891 18.6016 65.3828 18.75C65.4844 18.9062 65.5859 19.0078 65.6875 19.0547C65.7266 19.0781 65.7578 19.0859 65.7812 19.0781C65.8047 19.0781 65.8359 19.0859 65.875 19.1016C65.9219 19.125 65.957 19.1602 65.9805 19.207C66.0117 19.2539 66.0625 19.2891 66.1328 19.3125C66.2422 19.2422 66.3633 19.2227 66.4961 19.2539C66.6289 19.293 66.7617 19.3086 66.8945 19.3008C66.9336 19.3008 66.9688 19.2891 67 19.2656C67.0312 19.25 67.0625 19.2422 67.0938 19.2422C67.2734 19.2266 67.457 19.2109 67.6445 19.1953C67.8398 19.1797 68.0273 19.1445 68.207 19.0898C68.293 19.0664 68.3828 19.0273 68.4766 18.9727C68.5703 18.918 68.6641 18.8633 68.7578 18.8086C68.8828 18.7305 69.0078 18.6484 69.1328 18.5625C69.2656 18.4766 69.4141 18.4609 69.5781 18.5156C69.5859 18.6641 69.5625 18.7812 69.5078 18.8672C69.4531 18.9609 69.3828 19.0391 69.2969 19.1016C69.2109 19.1719 69.1211 19.2383 69.0273 19.3008C68.9336 19.3633 68.8555 19.4336 68.793 19.5117C68.6523 19.5508 68.5391 19.6016 68.4531 19.6641C68.3672 19.7344 68.2695 19.8047 68.1602 19.875C68.0977 19.9062 68.0352 19.9297 67.9727 19.9453C67.918 19.9609 67.8633 19.9883 67.8086 20.0273C67.7461 20.0586 67.6914 20.1016 67.6445 20.1562C67.5977 20.2109 67.5469 20.2578 67.4922 20.2969C67.4297 20.3359 67.3555 20.3594 67.2695 20.3672C67.1914 20.3828 67.1172 20.3984 67.0469 20.4141C66.8359 20.4766 66.6133 20.5273 66.3789 20.5664C66.1445 20.6133 65.9062 20.6406 65.6641 20.6484C65.4297 20.6641 65.1953 20.6523 64.9609 20.6133C64.7266 20.582 64.5039 20.5195 64.293 20.4258C64.1758 20.3789 64.0781 20.3164 64 20.2383C63.9297 20.168 63.8516 20.0898 63.7656 20.0039C63.6641 19.918 63.5547 19.8164 63.4375 19.6992C63.3281 19.5898 63.2422 19.4805 63.1797 19.3711C63.1562 19.3086 63.1328 19.2344 63.1094 19.1484C63.0938 19.0625 63.0742 18.9766 63.0508 18.8906C63.0273 18.8047 62.9961 18.707 62.957 18.5977C62.9258 18.4961 62.9102 18.3867 62.9102 18.2695C62.9023 18.0742 62.918 17.8711 62.957 17.6602C63.0039 17.4414 63.043 17.2305 63.0742 17.0273C63.1133 16.8164 63.1328 16.6172 63.1328 16.4297C63.1328 16.2344 63.0938 16.0625 63.0156 15.9141C62.9922 15.8672 62.957 15.8242 62.9102 15.7852C62.8711 15.7383 62.832 15.6875 62.793 15.6328C62.707 15.5234 62.6133 15.4258 62.5117 15.3398C62.4102 15.2461 62.2695 15.1875 62.0898 15.1641C61.9648 15.1484 61.8242 15.1484 61.668 15.1641C61.5117 15.1719 61.3984 15.2031 61.3281 15.2578C61.2188 15.3203 61.1562 15.4219 61.1406 15.5625C61.1328 15.6953 61.1133 15.8359 61.082 15.9844C61.043 16.1641 60.9883 16.3281 60.918 16.4766C60.8555 16.625 60.8359 16.793 60.8594 16.9805C60.875 17.0586 60.8984 17.1523 60.9297 17.2617C60.9609 17.3711 60.9922 17.457 61.0234 17.5195C61.0469 17.5742 61.0859 17.6406 61.1406 17.7188C61.1953 17.7969 61.2031 17.8672 61.1641 17.9297C61.1172 17.9922 61.0391 18.0156 60.9297 18C60.8203 17.9844 60.7109 17.9727 60.6016 17.9648C60.4688 17.957 60.3555 17.9531 60.2617 17.9531C60.1758 17.9453 60.0938 17.9453 60.0156 17.9531C59.9375 17.9531 59.8555 17.9609 59.7695 17.9766C59.6836 17.9844 59.5781 17.9961 59.4531 18.0117C59.3906 18.0195 59.3398 18.0273 59.3008 18.0352C59.2695 18.043 59.2383 18.0508 59.207 18.0586C59.1836 18.0742 59.1562 18.0859 59.125 18.0938C59.1016 18.1094 59.0625 18.125 59.0078 18.1406C58.9609 18.1562 58.918 18.1758 58.8789 18.1992C58.8398 18.2305 58.8008 18.2539 58.7617 18.2695C58.6289 18.3086 58.4844 18.332 58.3281 18.3398C58.1719 18.3555 58.0234 18.3633 57.8828 18.3633C57.75 18.3711 57.6172 18.3672 57.4844 18.3516C57.3438 18.3438 57.2188 18.3203 57.1094 18.2812C57.125 18.1875 57.168 18.125 57.2383 18.0938C57.3086 18.0625 57.3672 18.0195 57.4141 17.9648C57.6172 17.9258 57.8242 17.8398 58.0352 17.707C58.2383 17.5664 58.3711 17.3945 58.4336 17.1914C58.457 17.1211 58.4727 17.0469 58.4805 16.9688C58.4883 16.8828 58.5 16.8008 58.5156 16.7227C58.5547 16.5195 58.5938 16.3125 58.6328 16.1016C58.6719 15.8906 58.7227 15.6797 58.7852 15.4688C58.8008 15.4297 58.8203 15.3945 58.8438 15.3633C58.8672 15.332 58.8867 15.2969 58.9023 15.2578C58.9492 15.125 58.9766 14.9883 58.9844 14.8477C59 14.6992 59.0273 14.5586 59.0664 14.4258C59.1055 14.3242 59.1445 14.2305 59.1836 14.1445C59.2227 14.0508 59.2539 13.957 59.2773 13.8633C59.3008 13.7617 59.3203 13.6641 59.3359 13.5703C59.3594 13.4766 59.3984 13.3906 59.4531 13.3125C59.4688 13.1797 59.4844 13.0547 59.5 12.9375C59.5156 12.8203 59.5195 12.6836 59.5117 12.5273C59.5977 12.4258 59.6758 12.3203 59.7461 12.2109C59.8242 12.0938 59.875 11.957 59.8984 11.8008C59.9141 11.7148 59.9102 11.6328 59.8867 11.5547C59.8711 11.4766 59.8633 11.3906 59.8633 11.2969C59.8711 11.0938 59.8867 10.9141 59.9102 10.7578C59.9414 10.5938 59.9648 10.4102 59.9805 10.207C59.918 10.0664 59.8203 9.97266 59.6875 9.92578C59.5625 9.87109 59.4258 9.79688 59.2773 9.70312C59.2539 9.69531 59.2227 9.67969 59.1836 9.65625C59.1445 9.63281 59.1016 9.60938 59.0547 9.58594C59.0156 9.55469 58.9805 9.52344 58.9492 9.49219C58.9258 9.46094 58.9141 9.43359 58.9141 9.41016C58.9219 9.35547 58.9531 9.3125 59.0078 9.28125C59.0703 9.24219 59.1367 9.21875 59.207 9.21094C59.2852 9.19531 59.3633 9.19141 59.4414 9.19922C59.5195 9.19922 59.5859 9.20312 59.6406 9.21094C59.8359 9.25 60.0234 9.28906 60.2031 9.32812C60.3828 9.36719 60.5664 9.40234 60.7539 9.43359C60.9492 9.45703 61.1523 9.47266 61.3633 9.48047C61.582 9.48828 61.8281 9.48047 62.1016 9.45703C62.2031 9.44922 62.2891 9.4375 62.3594 9.42188C62.4375 9.39844 62.5234 9.38281 62.6172 9.375C62.75 9.36719 62.8789 9.35547 63.0039 9.33984C63.1367 9.31641 63.2695 9.3125 63.4023 9.32812C63.6445 9.35156 63.8594 9.35156 64.0469 9.32812C64.2344 9.29688 64.4336 9.29297 64.6445 9.31641C64.7461 9.33203 64.8398 9.36328 64.9258 9.41016C65.0195 9.44922 65.1094 9.49219 65.1953 9.53906C65.2891 9.58594 65.3789 9.62891 65.4648 9.66797C65.5586 9.69922 65.6523 9.71875 65.7461 9.72656C65.8867 9.8125 66.0195 9.92188 66.1445 10.0547C66.2773 10.1875 66.3984 10.3359 66.5078 10.5C66.5938 10.6328 66.6758 10.7852 66.7539 10.957C66.832 11.1289 66.8906 11.2734 66.9297 11.3906C66.9844 11.5312 67.0078 11.6719 67 11.8125C66.9922 11.9453 66.9727 12.0742 66.9414 12.1992C66.8789 12.4258 66.8008 12.6289 66.707 12.8086C66.6133 12.9883 66.5078 13.1602 66.3906 13.3242C66.2812 13.4805 66.1641 13.6406 66.0391 13.8047C65.9219 13.9609 65.8125 14.125 65.7109 14.2969C65.6484 14.3203 65.5859 14.3359 65.5234 14.3438C65.4688 14.3438 65.4141 14.3555 65.3594 14.3789C65.2734 14.418 65.1992 14.4766 65.1367 14.5547C65.0742 14.625 64.9922 14.6758 64.8906 14.707C64.8516 14.7227 64.8086 14.7266 64.7617 14.7188C64.7227 14.7109 64.6836 14.7109 64.6445 14.7188C64.5586 14.7422 64.4766 14.7734 64.3984 14.8125C64.3281 14.8438 64.2422 14.8672 64.1406 14.8828ZM63.4492 13.8867C63.5742 13.7305 63.7109 13.5859 63.8594 13.4531C64.0078 13.3125 64.125 13.1523 64.2109 12.9727C64.25 12.8867 64.2812 12.7852 64.3047 12.668C64.3359 12.543 64.3633 12.4258 64.3867 12.3164C64.4258 12.082 64.4297 11.875 64.3984 11.6953C64.3672 11.5156 64.3125 11.3555 64.2344 11.2148C64.1562 11.0742 64.0586 10.9531 63.9414 10.8516C63.8242 10.75 63.6953 10.6602 63.5547 10.582C63.4453 10.5195 63.332 10.4531 63.2148 10.3828C63.1055 10.3047 62.9688 10.2891 62.8047 10.3359C62.6875 10.4062 62.5898 10.5195 62.5117 10.6758C62.4414 10.832 62.375 10.9766 62.3125 11.1094C62.2891 11.1641 62.2617 11.2188 62.2305 11.2734C62.207 11.3281 62.1875 11.375 62.1719 11.4141C62.1641 11.4688 62.1641 11.5273 62.1719 11.5898C62.1797 11.6445 62.1758 11.7031 62.1602 11.7656C62.1445 11.8203 62.1055 11.8594 62.043 11.8828C61.9805 11.8984 61.9453 11.9336 61.9375 11.9883C61.9375 12.043 61.957 12.0938 61.9961 12.1406C62.043 12.1797 62.0664 12.2305 62.0664 12.293C62.0586 12.3867 62.0234 12.4922 61.9609 12.6094C61.9062 12.7266 61.8711 12.8477 61.8555 12.9727C61.8398 13.0898 61.8125 13.2031 61.7734 13.3125C61.7422 13.4219 61.707 13.5312 61.668 13.6406C61.6367 13.75 61.6055 13.8633 61.5742 13.9805C61.5508 14.0898 61.543 14.2031 61.5508 14.3203C61.707 14.3516 61.875 14.3633 62.0547 14.3555C62.2344 14.3477 62.4102 14.3242 62.582 14.2852C62.7539 14.2461 62.9141 14.1953 63.0625 14.1328C63.2188 14.0625 63.3477 13.9805 63.4492 13.8867ZM73.5977 12.8906C73.6758 13.0469 73.7344 13.1914 73.7734 13.3242C73.8125 13.457 73.8438 13.6367 73.8672 13.8633C73.8828 14.0195 73.8984 14.1602 73.9141 14.2852C73.9375 14.4023 73.9414 14.5508 73.9258 14.7305C73.918 14.8555 73.8984 14.9883 73.8672 15.1289C73.8359 15.2617 73.7969 15.3867 73.75 15.5039C73.6797 15.7148 73.6133 15.8984 73.5508 16.0547C73.4883 16.2109 73.4141 16.3789 73.3281 16.5586C73.2734 16.6602 73.2188 16.7422 73.1641 16.8047C73.1094 16.8672 73.0508 16.9336 72.9883 17.0039C72.9727 17.0273 72.957 17.0547 72.9414 17.0859C72.9336 17.1172 72.918 17.1445 72.8945 17.168C72.793 17.2852 72.6523 17.4062 72.4727 17.5312C72.3008 17.6562 72.1406 17.7461 71.9922 17.8008C71.9375 17.8164 71.8789 17.8281 71.8164 17.8359C71.7617 17.8359 71.7031 17.8438 71.6406 17.8594C71.5625 17.8906 71.4961 17.9375 71.4414 18C71.3867 18.0547 71.3164 18.0938 71.2305 18.1172C71.1836 18.1328 71.125 18.1445 71.0547 18.1523C70.9922 18.168 70.9297 18.1836 70.8672 18.1992C70.7109 18.2383 70.5156 18.2773 70.2812 18.3164C70.0547 18.3555 69.8438 18.3516 69.6484 18.3047C69.6172 18.2969 69.5859 18.2812 69.5547 18.2578C69.5234 18.2344 69.4883 18.2148 69.4492 18.1992C69.4102 18.1836 69.3711 18.1719 69.332 18.1641C69.293 18.1562 69.2578 18.1445 69.2266 18.1289C69.125 18.0898 69.0273 18.0352 68.9336 17.9648C68.8398 17.8945 68.7422 17.8398 68.6406 17.8008C68.5312 17.7383 68.4219 17.6836 68.3125 17.6367C68.2031 17.582 68.1289 17.4883 68.0898 17.3555C67.957 17.3164 67.8633 17.2266 67.8086 17.0859C67.7539 16.9453 67.6875 16.8203 67.6094 16.7109C67.5859 16.6719 67.5508 16.6406 67.5039 16.6172C67.4648 16.5859 67.4375 16.5508 67.4219 16.5117C67.3672 16.4258 67.3242 16.2891 67.293 16.1016C67.2617 15.9062 67.2422 15.7422 67.2344 15.6094C67.2266 15.4688 67.2344 15.3359 67.2578 15.2109C67.2891 15.0781 67.3203 14.9492 67.3516 14.8242C67.3906 14.6992 67.4297 14.5781 67.4688 14.4609C67.5156 14.3438 67.5547 14.2305 67.5859 14.1211C67.6172 13.9883 67.6758 13.8828 67.7617 13.8047C67.8477 13.7266 67.9297 13.6406 68.0078 13.5469C68.0391 13.5156 68.0625 13.4805 68.0781 13.4414C68.0938 13.4023 68.1172 13.3633 68.1484 13.3242C68.2109 13.2461 68.2812 13.1797 68.3594 13.125C68.4375 13.0625 68.5117 13 68.582 12.9375C68.6602 12.875 68.7422 12.8164 68.8281 12.7617C68.9141 12.6992 68.9844 12.6367 69.0391 12.5742C69.1016 12.4883 69.1484 12.4023 69.1797 12.3164C69.2188 12.2305 69.2773 12.1562 69.3555 12.0938C69.4414 12.0234 69.5352 11.9727 69.6367 11.9414C69.7461 11.9102 69.8711 11.875 70.0117 11.8359C70.1445 11.8047 70.2734 11.7617 70.3984 11.707C70.5312 11.6445 70.6719 11.6055 70.8203 11.5898C70.9609 11.5742 71.1133 11.5664 71.2773 11.5664C71.4414 11.5586 71.6016 11.5625 71.7578 11.5781C71.9219 11.5938 72.0742 11.6211 72.2148 11.6602C72.3633 11.6992 72.4922 11.7539 72.6016 11.8242C72.6562 11.8555 72.7109 11.9023 72.7656 11.9648C72.8281 12.0273 72.8867 12.0859 72.9414 12.1406C73.0664 12.2656 73.1719 12.3945 73.2578 12.5273C73.3516 12.6523 73.4648 12.7734 73.5977 12.8906ZM71.043 12.3633C71.0117 12.3633 70.9648 12.375 70.9023 12.3984C70.8477 12.4219 70.7891 12.4492 70.7266 12.4805C70.6719 12.5039 70.6211 12.5312 70.5742 12.5625C70.5273 12.5938 70.4922 12.6172 70.4688 12.6328C70.375 12.7188 70.2891 12.8281 70.2109 12.9609C70.1406 13.0859 70.0586 13.1992 69.9648 13.3008C69.9258 13.3398 69.8828 13.3711 69.8359 13.3945C69.7969 13.4102 69.7656 13.4336 69.7422 13.4648C69.6094 13.6133 69.5117 13.7852 69.4492 13.9805C69.3945 14.1758 69.3359 14.3633 69.2734 14.543C69.2031 14.7305 69.1367 14.9414 69.0742 15.1758C69.0117 15.4102 68.9922 15.6328 69.0156 15.8438C69.0234 15.8906 69.0391 15.9531 69.0625 16.0312C69.0938 16.1016 69.1211 16.168 69.1445 16.2305C69.1758 16.3008 69.2031 16.3711 69.2266 16.4414C69.2578 16.5039 69.2891 16.5625 69.3203 16.6172C69.3672 16.7109 69.4258 16.8125 69.4961 16.9219C69.5742 17.0234 69.6602 17.1133 69.7539 17.1914C69.8555 17.2617 69.9648 17.3164 70.082 17.3555C70.207 17.3867 70.3398 17.3828 70.4805 17.3438C70.5664 17.3125 70.6719 17.2656 70.7969 17.2031C70.9219 17.1328 71.0352 17.0664 71.1367 17.0039C71.2852 16.9102 71.3906 16.8164 71.4531 16.7227C71.5156 16.6211 71.5781 16.4922 71.6406 16.3359C71.6562 16.2969 71.6758 16.2617 71.6992 16.2305C71.7305 16.1914 71.7578 16.1523 71.7812 16.1133C71.8281 16.0273 71.8672 15.9336 71.8984 15.832C71.9297 15.7305 71.9688 15.6328 72.0156 15.5391C72.1094 15.3281 72.168 15.125 72.1914 14.9297C72.2148 14.7344 72.2344 14.5 72.25 14.2266C72.2578 14.0781 72.2461 13.9688 72.2148 13.8984C72.1914 13.8281 72.1719 13.7305 72.1562 13.6055C72.1484 13.5195 72.1445 13.4414 72.1445 13.3711C72.1445 13.293 72.1289 13.2266 72.0977 13.1719C72.0586 13.1016 71.9844 13.0547 71.875 13.0312C71.7734 13.0078 71.6914 12.9648 71.6289 12.9023C71.5664 12.8008 71.5 12.7031 71.4297 12.6094C71.3594 12.5156 71.2734 12.4375 71.1719 12.375C71.1328 12.3828 71.1055 12.3828 71.0898 12.375C71.0742 12.3672 71.0586 12.3633 71.043 12.3633ZM76.75 17.8945C76.6953 17.8867 76.6133 17.9062 76.5039 17.9531C76.4023 18 76.3086 18.0391 76.2227 18.0703C76.1367 18.0938 76.043 18.1211 75.9414 18.1523C75.8398 18.1836 75.7422 18.1953 75.6484 18.1875C75.5859 18.1797 75.5273 18.1602 75.4727 18.1289C75.418 18.1055 75.3672 18.0977 75.3203 18.1055C75.2812 18.1055 75.2461 18.1211 75.2148 18.1523C75.1836 18.1836 75.1445 18.207 75.0977 18.2227C75.0117 18.2539 74.9102 18.2773 74.793 18.293C74.6758 18.3164 74.5625 18.3242 74.4531 18.3164C74.3438 18.3086 74.2539 18.2773 74.1836 18.2227C74.1211 18.1758 74.1016 18.0977 74.125 17.9883C74.1406 17.918 74.168 17.8477 74.207 17.7773C74.2539 17.6992 74.2969 17.6133 74.3359 17.5195C74.3984 17.3555 74.4453 17.1836 74.4766 17.0039C74.5078 16.8164 74.5508 16.668 74.6055 16.5586C74.6367 16.4961 74.6836 16.4375 74.7461 16.3828C74.8086 16.3281 74.8438 16.2695 74.8516 16.207C74.8594 16.1602 74.8516 16.1211 74.8281 16.0898C74.8047 16.0586 74.793 16.0156 74.793 15.9609C74.793 15.9219 74.8008 15.8828 74.8164 15.8438C74.8398 15.7969 74.8555 15.7422 74.8633 15.6797C74.8711 15.6172 74.8711 15.5625 74.8633 15.5156C74.8555 15.4609 74.8594 15.4141 74.875 15.375C74.8906 15.3281 74.9141 15.2852 74.9453 15.2461C74.9766 15.1992 75.0078 15.1562 75.0391 15.1172C75.0781 15.0703 75.1094 15.0195 75.1328 14.9648C75.1562 14.9102 75.168 14.8477 75.168 14.7773C75.168 14.7383 75.1797 14.6758 75.2031 14.5898C75.2266 14.4961 75.2344 14.4258 75.2266 14.3789C75.2031 14.2148 75.2031 14.0781 75.2266 13.9688C75.2578 13.8594 75.293 13.7617 75.332 13.6758C75.3789 13.582 75.4258 13.4883 75.4727 13.3945C75.5273 13.3008 75.5664 13.1875 75.5898 13.0547C75.6211 12.8906 75.6445 12.7188 75.6602 12.5391C75.6758 12.3594 75.7031 12.1992 75.7422 12.0586C75.7891 11.9102 75.8555 11.793 75.9414 11.707C76.0352 11.6211 76.1758 11.5898 76.3633 11.6133C76.4414 11.707 76.4922 11.7969 76.5156 11.8828C76.5469 11.9688 76.5898 12.0664 76.6445 12.1758C76.668 12.2383 76.7305 12.293 76.832 12.3398C76.9336 12.3867 77.0039 12.4375 77.043 12.4922C77.082 12.5391 77.125 12.5898 77.1719 12.6445C77.2266 12.6914 77.2617 12.7422 77.2773 12.7969C77.3008 12.8984 77.3047 13.0156 77.2891 13.1484C77.2812 13.2812 77.2734 13.4023 77.2656 13.5117C77.2578 13.5742 77.25 13.6406 77.2422 13.7109C77.2344 13.7734 77.2227 13.8281 77.207 13.875C77.1914 13.9297 77.1719 13.9766 77.1484 14.0156C77.1328 14.0547 77.1211 14.0938 77.1133 14.1328C77.0977 14.2109 77.0859 14.2812 77.0781 14.3438C77.0781 14.3984 77.0703 14.4531 77.0547 14.5078C77.0156 14.625 76.957 14.7266 76.8789 14.8125C76.8086 14.8984 76.7539 15 76.7148 15.1172C76.6914 15.1719 76.6719 15.2344 76.6562 15.3047C76.6484 15.375 76.6367 15.4414 76.6211 15.5039C76.5742 15.6758 76.5234 15.8711 76.4688 16.0898C76.4141 16.3086 76.3945 16.5195 76.4102 16.7227C76.4727 16.707 76.5273 16.6953 76.5742 16.6875C76.6211 16.6797 76.6641 16.6758 76.7031 16.6758C76.7422 16.668 76.7852 16.668 76.832 16.6758C76.8867 16.6836 76.9531 16.6953 77.0312 16.7109C77.1484 16.7422 77.2773 16.7812 77.418 16.8281C77.5586 16.875 77.7031 16.9062 77.8516 16.9219C77.9609 16.9297 78.0703 16.9297 78.1797 16.9219C78.2969 16.9141 78.4102 16.918 78.5195 16.9336C78.6289 16.9492 78.7305 16.9688 78.8242 16.9922C78.9258 17.0078 79.0195 17.0078 79.1055 16.9922C79.1445 16.9766 79.1719 16.9648 79.1875 16.957C79.2109 16.9414 79.2383 16.9297 79.2695 16.9219C79.3945 16.8984 79.5391 16.9023 79.7031 16.9336C79.8672 16.957 80.0195 16.9766 80.1602 16.9922C80.1836 16.9922 80.2188 16.9922 80.2656 16.9922C80.3125 16.9844 80.3594 16.9844 80.4062 16.9922C80.4531 16.9922 80.4922 17.0039 80.5234 17.0273C80.5547 17.0508 80.5703 17.0859 80.5703 17.1328C80.5625 17.2031 80.5078 17.2578 80.4062 17.2969C80.3125 17.3359 80.2344 17.3633 80.1719 17.3789C80.0781 17.4023 79.9883 17.4141 79.9023 17.4141C79.8242 17.4141 79.7383 17.4258 79.6445 17.4492C79.5586 17.4727 79.4805 17.5039 79.4102 17.543C79.3477 17.5742 79.2812 17.5977 79.2109 17.6133C79.1875 17.6289 79.1641 17.6367 79.1406 17.6367C79.1172 17.6289 79.0898 17.6289 79.0586 17.6367C79.0117 17.6523 78.957 17.6797 78.8945 17.7188C78.832 17.75 78.7812 17.7695 78.7422 17.7773C78.6016 17.8086 78.4492 17.8008 78.2852 17.7539C78.1289 17.707 77.9688 17.6914 77.8047 17.707C77.7422 17.7148 77.6797 17.7305 77.6172 17.7539C77.5547 17.7695 77.4922 17.7852 77.4297 17.8008C77.3672 17.8164 77.3047 17.8281 77.2422 17.8359C77.1797 17.8438 77.125 17.8555 77.0781 17.8711L76.75 17.8945ZM82.4805 17.8945C82.4258 17.8867 82.3438 17.9062 82.2344 17.9531C82.1328 18 82.0391 18.0391 81.9531 18.0703C81.8672 18.0938 81.7734 18.1211 81.6719 18.1523C81.5703 18.1836 81.4727 18.1953 81.3789 18.1875C81.3164 18.1797 81.2578 18.1602 81.2031 18.1289C81.1484 18.1055 81.0977 18.0977 81.0508 18.1055C81.0117 18.1055 80.9766 18.1211 80.9453 18.1523C80.9141 18.1836 80.875 18.207 80.8281 18.2227C80.7422 18.2539 80.6406 18.2773 80.5234 18.293C80.4062 18.3164 80.293 18.3242 80.1836 18.3164C80.0742 18.3086 79.9844 18.2773 79.9141 18.2227C79.8516 18.1758 79.832 18.0977 79.8555 17.9883C79.8711 17.918 79.8984 17.8477 79.9375 17.7773C79.9844 17.6992 80.0273 17.6133 80.0664 17.5195C80.1289 17.3555 80.1758 17.1836 80.207 17.0039C80.2383 16.8164 80.2812 16.668 80.3359 16.5586C80.3672 16.4961 80.4141 16.4375 80.4766 16.3828C80.5391 16.3281 80.5742 16.2695 80.582 16.207C80.5898 16.1602 80.582 16.1211 80.5586 16.0898C80.5352 16.0586 80.5234 16.0156 80.5234 15.9609C80.5234 15.9219 80.5312 15.8828 80.5469 15.8438C80.5703 15.7969 80.5859 15.7422 80.5938 15.6797C80.6016 15.6172 80.6016 15.5625 80.5938 15.5156C80.5859 15.4609 80.5898 15.4141 80.6055 15.375C80.6211 15.3281 80.6445 15.2852 80.6758 15.2461C80.707 15.1992 80.7383 15.1562 80.7695 15.1172C80.8086 15.0703 80.8398 15.0195 80.8633 14.9648C80.8867 14.9102 80.8984 14.8477 80.8984 14.7773C80.8984 14.7383 80.9102 14.6758 80.9336 14.5898C80.957 14.4961 80.9648 14.4258 80.957 14.3789C80.9336 14.2148 80.9336 14.0781 80.957 13.9688C80.9883 13.8594 81.0234 13.7617 81.0625 13.6758C81.1094 13.582 81.1562 13.4883 81.2031 13.3945C81.2578 13.3008 81.2969 13.1875 81.3203 13.0547C81.3516 12.8906 81.375 12.7188 81.3906 12.5391C81.4062 12.3594 81.4336 12.1992 81.4727 12.0586C81.5195 11.9102 81.5859 11.793 81.6719 11.707C81.7656 11.6211 81.9062 11.5898 82.0938 11.6133C82.1719 11.707 82.2227 11.7969 82.2461 11.8828C82.2773 11.9688 82.3203 12.0664 82.375 12.1758C82.3984 12.2383 82.4609 12.293 82.5625 12.3398C82.6641 12.3867 82.7344 12.4375 82.7734 12.4922C82.8125 12.5391 82.8555 12.5898 82.9023 12.6445C82.957 12.6914 82.9922 12.7422 83.0078 12.7969C83.0312 12.8984 83.0352 13.0156 83.0195 13.1484C83.0117 13.2812 83.0039 13.4023 82.9961 13.5117C82.9883 13.5742 82.9805 13.6406 82.9727 13.7109C82.9648 13.7734 82.9531 13.8281 82.9375 13.875C82.9219 13.9297 82.9023 13.9766 82.8789 14.0156C82.8633 14.0547 82.8516 14.0938 82.8438 14.1328C82.8281 14.2109 82.8164 14.2812 82.8086 14.3438C82.8086 14.3984 82.8008 14.4531 82.7852 14.5078C82.7461 14.625 82.6875 14.7266 82.6094 14.8125C82.5391 14.8984 82.4844 15 82.4453 15.1172C82.4219 15.1719 82.4023 15.2344 82.3867 15.3047C82.3789 15.375 82.3672 15.4414 82.3516 15.5039C82.3047 15.6758 82.2539 15.8711 82.1992 16.0898C82.1445 16.3086 82.125 16.5195 82.1406 16.7227C82.2031 16.707 82.2578 16.6953 82.3047 16.6875C82.3516 16.6797 82.3945 16.6758 82.4336 16.6758C82.4727 16.668 82.5156 16.668 82.5625 16.6758C82.6172 16.6836 82.6836 16.6953 82.7617 16.7109C82.8789 16.7422 83.0078 16.7812 83.1484 16.8281C83.2891 16.875 83.4336 16.9062 83.582 16.9219C83.6914 16.9297 83.8008 16.9297 83.9102 16.9219C84.0273 16.9141 84.1406 16.918 84.25 16.9336C84.3594 16.9492 84.4609 16.9688 84.5547 16.9922C84.6562 17.0078 84.75 17.0078 84.8359 16.9922C84.875 16.9766 84.9023 16.9648 84.918 16.957C84.9414 16.9414 84.9688 16.9297 85 16.9219C85.125 16.8984 85.2695 16.9023 85.4336 16.9336C85.5977 16.957 85.75 16.9766 85.8906 16.9922C85.9141 16.9922 85.9492 16.9922 85.9961 16.9922C86.043 16.9844 86.0898 16.9844 86.1367 16.9922C86.1836 16.9922 86.2227 17.0039 86.2539 17.0273C86.2852 17.0508 86.3008 17.0859 86.3008 17.1328C86.293 17.2031 86.2383 17.2578 86.1367 17.2969C86.043 17.3359 85.9648 17.3633 85.9023 17.3789C85.8086 17.4023 85.7188 17.4141 85.6328 17.4141C85.5547 17.4141 85.4688 17.4258 85.375 17.4492C85.2891 17.4727 85.2109 17.5039 85.1406 17.543C85.0781 17.5742 85.0117 17.5977 84.9414 17.6133C84.918 17.6289 84.8945 17.6367 84.8711 17.6367C84.8477 17.6289 84.8203 17.6289 84.7891 17.6367C84.7422 17.6523 84.6875 17.6797 84.625 17.7188C84.5625 17.75 84.5117 17.7695 84.4727 17.7773C84.332 17.8086 84.1797 17.8008 84.0156 17.7539C83.8594 17.707 83.6992 17.6914 83.5352 17.707C83.4727 17.7148 83.4102 17.7305 83.3477 17.7539C83.2852 17.7695 83.2227 17.7852 83.1602 17.8008C83.0977 17.8164 83.0352 17.8281 82.9727 17.8359C82.9102 17.8438 82.8555 17.8555 82.8086 17.8711L82.4805 17.8945Z" fill="white"/>
</svg>
