<svg width="38" height="29" viewBox="0 0 38 29" fill="none" xmlns="http://www.w3.org/2000/svg">
<path d="M16.7031 17.7656C16.7812 17.8906 16.8711 18 16.9727 18.0938C17.082 18.1875 17.1914 18.2734 17.3008 18.3516C17.418 18.4375 17.5312 18.5234 17.6406 18.6094C17.7578 18.6953 17.8594 18.793 17.9453 18.9023C18.2109 18.9648 18.457 18.9531 18.6836 18.8672C18.9102 18.7891 19.1055 18.6953 19.2695 18.5859C19.3164 18.5547 19.3633 18.5156 19.4102 18.4688C19.4648 18.4219 19.5195 18.3828 19.5742 18.3516C19.6289 18.3203 19.6875 18.3008 19.75 18.293C19.8125 18.293 19.8789 18.3164 19.9492 18.3633C19.9336 18.4258 19.9102 18.5 19.8789 18.5859C19.8555 18.6719 19.8203 18.7461 19.7734 18.8086C19.7031 18.8867 19.6172 18.9688 19.5156 19.0547C19.4141 19.1484 19.3047 19.2344 19.1875 19.3125C19.0781 19.3906 18.9609 19.457 18.8359 19.5117C18.7188 19.5742 18.6016 19.6172 18.4844 19.6406C18.4453 19.6562 18.4062 19.6602 18.3672 19.6523C18.3281 19.6445 18.2852 19.6484 18.2383 19.6641C18.1133 19.6797 17.9844 19.707 17.8516 19.7461C17.7266 19.793 17.5977 19.8125 17.4648 19.8047C17.332 19.8047 17.1953 19.7734 17.0547 19.7109C16.9141 19.6562 16.8008 19.5977 16.7148 19.5352C16.668 19.4961 16.6289 19.4453 16.5977 19.3828C16.5742 19.3281 16.5547 19.2656 16.5391 19.1953C16.4844 19.2031 16.4297 19.2148 16.375 19.2305C16.3203 19.2461 16.2617 19.2383 16.1992 19.207C16.1602 19.1914 16.1367 19.168 16.1289 19.1367C16.1211 19.1133 16.0977 19.082 16.0586 19.043C16.043 19.0273 16.0156 19.0156 15.9766 19.0078C15.9453 19 15.9141 18.9844 15.8828 18.9609C15.8438 18.9375 15.8086 18.9023 15.7773 18.8555C15.7461 18.8164 15.7109 18.7852 15.6719 18.7617C15.5625 18.6758 15.4492 18.5977 15.332 18.5273C15.2227 18.4648 15.1445 18.3789 15.0977 18.2695C14.9023 18.3086 14.6562 18.3438 14.3594 18.375C14.0625 18.4141 13.7773 18.4141 13.5039 18.375C13.4414 18.3672 13.375 18.3516 13.3047 18.3281C13.2344 18.3125 13.1641 18.3047 13.0938 18.3047C12.9922 18.3047 12.8906 18.3008 12.7891 18.293C12.6875 18.2852 12.6172 18.2383 12.5781 18.1523C12.2812 18.0508 12.0195 17.918 11.793 17.7539C11.5664 17.582 11.3594 17.3906 11.1719 17.1797C11.0234 17.1406 10.9141 17.0703 10.8438 16.9688C10.8047 16.9141 10.7773 16.8516 10.7617 16.7812C10.7461 16.7031 10.7188 16.6406 10.6797 16.5938C10.6641 16.5625 10.6367 16.543 10.5977 16.5352C10.5664 16.5195 10.5391 16.5 10.5156 16.4766C10.4844 16.4453 10.4414 16.3984 10.3867 16.3359C10.332 16.2734 10.293 16.2109 10.2695 16.1484C10.2539 16.125 10.2461 16.0977 10.2461 16.0664C10.2461 16.0352 10.2383 16.0078 10.2227 15.9844C10.207 15.9531 10.1914 15.9336 10.1758 15.9258C10.1602 15.9102 10.1484 15.8906 10.1406 15.8672C10.1094 15.7734 10.0859 15.6562 10.0703 15.5156C10.0625 15.3672 10.0586 15.2383 10.0586 15.1289C10.0586 14.8242 10.0664 14.5156 10.082 14.2031C10.1055 13.8906 10.1445 13.5859 10.1992 13.2891C10.2617 12.9844 10.3398 12.6953 10.4336 12.4219C10.5273 12.1484 10.6445 11.9023 10.7852 11.6836C10.8945 11.5117 10.9922 11.3711 11.0781 11.2617C11.1719 11.1445 11.3047 11.0234 11.4766 10.8984C11.6016 10.7969 11.7148 10.707 11.8164 10.6289C11.9258 10.5508 12.0664 10.4922 12.2383 10.4531C12.3086 10.4141 12.3711 10.3711 12.4258 10.3242C12.4883 10.2695 12.5234 10.1836 12.5312 10.0664C12.6484 9.98047 12.793 9.89062 12.9648 9.79688C13.1445 9.69531 13.3125 9.61328 13.4688 9.55078C13.6953 9.44141 13.9414 9.34375 14.207 9.25781C14.4805 9.16406 14.7539 9.11328 15.0273 9.10547C15.1836 9.09766 15.3398 9.10156 15.4961 9.11719C15.6523 9.13281 15.8008 9.14844 15.9414 9.16406C16.1992 9.16406 16.3906 9.21094 16.5156 9.30469C16.6406 9.39062 16.7695 9.47656 16.9023 9.5625C17.082 9.53125 17.2383 9.5625 17.3711 9.65625C17.5039 9.75 17.625 9.83594 17.7344 9.91406C17.7734 9.9375 17.8086 9.95703 17.8398 9.97266C17.8789 9.98828 17.9141 10.0039 17.9453 10.0195C17.9922 10.0586 18.0312 10.1094 18.0625 10.1719C18.0938 10.2266 18.1328 10.2617 18.1797 10.2773C18.2266 10.293 18.2734 10.2969 18.3203 10.2891C18.3672 10.2812 18.4102 10.2852 18.4492 10.3008C18.4805 10.3164 18.5078 10.3477 18.5312 10.3945C18.5625 10.4414 18.5938 10.4805 18.625 10.5117C18.6641 10.5586 18.707 10.5977 18.7539 10.6289C18.8008 10.6523 18.8359 10.6836 18.8594 10.7227C18.875 10.7461 18.8906 10.7773 18.9062 10.8164C18.9219 10.8555 18.9375 10.8945 18.9531 10.9336C19 11.0117 19.043 11.0859 19.082 11.1562C19.1211 11.2266 19.1602 11.3164 19.1992 11.4258C19.2773 11.543 19.3281 11.6367 19.3516 11.707C19.3672 11.7695 19.375 11.8438 19.375 11.9297C19.375 12.0078 19.3828 12.0859 19.3984 12.1641C19.4219 12.2969 19.4453 12.4297 19.4688 12.5625C19.4922 12.6953 19.5 12.8438 19.4922 13.0078C19.4844 13.0625 19.4727 13.1172 19.457 13.1719C19.4492 13.2188 19.4414 13.2734 19.4336 13.3359C19.4336 13.3984 19.4375 13.457 19.4453 13.5117C19.4531 13.5664 19.4492 13.625 19.4336 13.6875C19.3945 13.9141 19.3203 14.1328 19.2109 14.3438C19.1094 14.5547 19.0039 14.7617 18.8945 14.9648C18.8398 15.0664 18.7891 15.1719 18.7422 15.2812C18.6953 15.3828 18.6484 15.4805 18.6016 15.5742C18.5547 15.6836 18.4922 15.7734 18.4141 15.8438C18.3438 15.9062 18.2773 15.9805 18.2148 16.0664C18.1992 16.0977 18.1875 16.1289 18.1797 16.1602C18.1719 16.1914 18.1602 16.2266 18.1445 16.2656C18.082 16.3906 18.0039 16.5156 17.9102 16.6406C17.8164 16.7656 17.7188 16.8828 17.6172 16.9922C17.5859 17.0312 17.5586 17.0742 17.5352 17.1211C17.5117 17.1602 17.4844 17.1953 17.4531 17.2266C17.3594 17.3438 17.2344 17.4414 17.0781 17.5195C16.9297 17.5898 16.8047 17.6719 16.7031 17.7656ZM14.4883 10.6992C14.332 10.8086 14.1914 10.9062 14.0664 10.9922C13.9492 11.0781 13.8281 11.1797 13.7031 11.2969C13.6641 11.3359 13.625 11.375 13.5859 11.4141C13.5469 11.4531 13.5156 11.4922 13.4922 11.5312C13.4609 11.5703 13.4375 11.6211 13.4219 11.6836C13.4062 11.7383 13.3867 11.793 13.3633 11.8477C13.3398 11.9023 13.3047 11.9453 13.2578 11.9766C13.2109 12.0078 13.168 12.0508 13.1289 12.1055C13.0898 12.1523 13.0508 12.2227 13.0117 12.3164C12.9805 12.4023 12.9414 12.4883 12.8945 12.5742C12.832 12.707 12.7734 12.832 12.7188 12.9492C12.6641 13.0664 12.6172 13.207 12.5781 13.3711C12.5469 13.4805 12.5117 13.6094 12.4727 13.7578C12.4414 13.9062 12.4336 14.0469 12.4492 14.1797C12.457 14.2266 12.4688 14.2695 12.4844 14.3086C12.5078 14.3398 12.5234 14.375 12.5312 14.4141C12.5469 14.5625 12.5312 14.6914 12.4844 14.8008C12.4375 14.9102 12.4102 15.0391 12.4023 15.1875C12.3945 15.2891 12.3984 15.3867 12.4141 15.4805C12.4375 15.5664 12.4648 15.6523 12.4961 15.7383C12.5273 15.8164 12.5586 15.8906 12.5898 15.9609C12.6289 16.0312 12.6602 16.1016 12.6836 16.1719C12.707 16.2422 12.7344 16.3125 12.7656 16.3828C12.7969 16.4453 12.8359 16.4922 12.8828 16.5234C13 16.5078 13.1211 16.4766 13.2461 16.4297C13.3711 16.3828 13.5 16.332 13.6328 16.2773C13.7656 16.2227 13.8945 16.1602 14.0195 16.0898C14.1523 16.0195 14.2852 15.9922 14.418 16.0078C14.457 16.0156 14.5 16.0312 14.5469 16.0547C14.6016 16.0703 14.6523 16.0859 14.6992 16.1016C14.8242 16.1484 14.9375 16.1797 15.0391 16.1953C15.1406 16.2109 15.2227 16.2695 15.2852 16.3711C15.3008 16.4648 15.3438 16.5391 15.4141 16.5938C15.4844 16.6484 15.5391 16.7109 15.5781 16.7812C15.7266 16.7188 15.8359 16.6328 15.9062 16.5234C15.9844 16.4062 16.0742 16.2539 16.1758 16.0664C16.2617 15.9258 16.3633 15.7539 16.4805 15.5508C16.5977 15.3477 16.6758 15.1523 16.7148 14.9648C16.7539 14.7617 16.7812 14.5547 16.7969 14.3438C16.8203 14.125 16.8516 13.9141 16.8906 13.7109C16.9219 13.5156 16.9531 13.3203 16.9844 13.125C17.0156 12.9297 17.0508 12.7383 17.0898 12.5508C17.1055 12.4883 17.1211 12.4297 17.1367 12.375C17.1602 12.3125 17.1719 12.25 17.1719 12.1875C17.1797 12.1172 17.1797 12.0391 17.1719 11.9531C17.1641 11.8594 17.1523 11.7734 17.1367 11.6953C17.1211 11.5859 17.1016 11.4727 17.0781 11.3555C17.0547 11.2305 17.0273 11.1289 16.9961 11.0508C16.9336 10.8555 16.8398 10.7227 16.7148 10.6523C16.5977 10.582 16.4609 10.5039 16.3047 10.418C16.2422 10.3867 16.1875 10.3516 16.1406 10.3125C16.0938 10.2656 16.0508 10.2383 16.0117 10.2305C15.918 10.2148 15.8203 10.2266 15.7188 10.2656C15.625 10.2969 15.5352 10.3047 15.4492 10.2891C15.4102 10.2891 15.375 10.2773 15.3438 10.2539C15.3125 10.2227 15.2695 10.2148 15.2148 10.2305C15.1289 10.3477 15.0195 10.4336 14.8867 10.4883C14.7539 10.543 14.6211 10.6133 14.4883 10.6992ZM25.5977 14.8828C25.7695 15.0156 25.9453 15.1484 26.125 15.2812C26.3125 15.4141 26.4609 15.5742 26.5703 15.7617C26.5469 15.832 26.543 15.8906 26.5586 15.9375C26.5742 15.9766 26.5977 16.0156 26.6289 16.0547C26.668 16.0859 26.7031 16.1211 26.7344 16.1602C26.7734 16.1914 26.8008 16.2344 26.8164 16.2891C26.8398 16.3906 26.832 16.5078 26.793 16.6406C26.7539 16.7656 26.7266 16.8906 26.7109 17.0156C26.6953 17.0781 26.6836 17.1445 26.6758 17.2148C26.6758 17.2773 26.668 17.3398 26.6523 17.4023C26.6211 17.5664 26.5977 17.7227 26.582 17.8711C26.5664 18.0195 26.5859 18.1758 26.6406 18.3398C26.6797 18.4648 26.7461 18.6016 26.8398 18.75C26.9414 18.9062 27.043 19.0078 27.1445 19.0547C27.1836 19.0781 27.2148 19.0859 27.2383 19.0781C27.2617 19.0781 27.293 19.0859 27.332 19.1016C27.3789 19.125 27.4141 19.1602 27.4375 19.207C27.4688 19.2539 27.5195 19.2891 27.5898 19.3125C27.6992 19.2422 27.8203 19.2227 27.9531 19.2539C28.0859 19.293 28.2188 19.3086 28.3516 19.3008C28.3906 19.3008 28.4258 19.2891 28.457 19.2656C28.4883 19.25 28.5195 19.2422 28.5508 19.2422C28.7305 19.2266 28.9141 19.2109 29.1016 19.1953C29.2969 19.1797 29.4844 19.1445 29.6641 19.0898C29.75 19.0664 29.8398 19.0273 29.9336 18.9727C30.0273 18.918 30.1211 18.8633 30.2148 18.8086C30.3398 18.7305 30.4648 18.6484 30.5898 18.5625C30.7227 18.4766 30.8711 18.4609 31.0352 18.5156C31.043 18.6641 31.0195 18.7812 30.9648 18.8672C30.9102 18.9609 30.8398 19.0391 30.7539 19.1016C30.668 19.1719 30.5781 19.2383 30.4844 19.3008C30.3906 19.3633 30.3125 19.4336 30.25 19.5117C30.1094 19.5508 29.9961 19.6016 29.9102 19.6641C29.8242 19.7344 29.7266 19.8047 29.6172 19.875C29.5547 19.9062 29.4922 19.9297 29.4297 19.9453C29.375 19.9609 29.3203 19.9883 29.2656 20.0273C29.2031 20.0586 29.1484 20.1016 29.1016 20.1562C29.0547 20.2109 29.0039 20.2578 28.9492 20.2969C28.8867 20.3359 28.8125 20.3594 28.7266 20.3672C28.6484 20.3828 28.5742 20.3984 28.5039 20.4141C28.293 20.4766 28.0703 20.5273 27.8359 20.5664C27.6016 20.6133 27.3633 20.6406 27.1211 20.6484C26.8867 20.6641 26.6523 20.6523 26.418 20.6133C26.1836 20.582 25.9609 20.5195 25.75 20.4258C25.6328 20.3789 25.5352 20.3164 25.457 20.2383C25.3867 20.168 25.3086 20.0898 25.2227 20.0039C25.1211 19.918 25.0117 19.8164 24.8945 19.6992C24.7852 19.5898 24.6992 19.4805 24.6367 19.3711C24.6133 19.3086 24.5898 19.2344 24.5664 19.1484C24.5508 19.0625 24.5312 18.9766 24.5078 18.8906C24.4844 18.8047 24.4531 18.707 24.4141 18.5977C24.3828 18.4961 24.3672 18.3867 24.3672 18.2695C24.3594 18.0742 24.375 17.8711 24.4141 17.6602C24.4609 17.4414 24.5 17.2305 24.5312 17.0273C24.5703 16.8164 24.5898 16.6172 24.5898 16.4297C24.5898 16.2344 24.5508 16.0625 24.4727 15.9141C24.4492 15.8672 24.4141 15.8242 24.3672 15.7852C24.3281 15.7383 24.2891 15.6875 24.25 15.6328C24.1641 15.5234 24.0703 15.4258 23.9688 15.3398C23.8672 15.2461 23.7266 15.1875 23.5469 15.1641C23.4219 15.1484 23.2812 15.1484 23.125 15.1641C22.9688 15.1719 22.8555 15.2031 22.7852 15.2578C22.6758 15.3203 22.6133 15.4219 22.5977 15.5625C22.5898 15.6953 22.5703 15.8359 22.5391 15.9844C22.5 16.1641 22.4453 16.3281 22.375 16.4766C22.3125 16.625 22.293 16.793 22.3164 16.9805C22.332 17.0586 22.3555 17.1523 22.3867 17.2617C22.418 17.3711 22.4492 17.457 22.4805 17.5195C22.5039 17.5742 22.543 17.6406 22.5977 17.7188C22.6523 17.7969 22.6602 17.8672 22.6211 17.9297C22.5742 17.9922 22.4961 18.0156 22.3867 18C22.2773 17.9844 22.168 17.9727 22.0586 17.9648C21.9258 17.957 21.8125 17.9531 21.7188 17.9531C21.6328 17.9453 21.5508 17.9453 21.4727 17.9531C21.3945 17.9531 21.3125 17.9609 21.2266 17.9766C21.1406 17.9844 21.0352 17.9961 20.9102 18.0117C20.8477 18.0195 20.7969 18.0273 20.7578 18.0352C20.7266 18.043 20.6953 18.0508 20.6641 18.0586C20.6406 18.0742 20.6133 18.0859 20.582 18.0938C20.5586 18.1094 20.5195 18.125 20.4648 18.1406C20.418 18.1562 20.375 18.1758 20.3359 18.1992C20.2969 18.2305 20.2578 18.2539 20.2188 18.2695C20.0859 18.3086 19.9414 18.332 19.7852 18.3398C19.6289 18.3555 19.4805 18.3633 19.3398 18.3633C19.207 18.3711 19.0742 18.3672 18.9414 18.3516C18.8008 18.3438 18.6758 18.3203 18.5664 18.2812C18.582 18.1875 18.625 18.125 18.6953 18.0938C18.7656 18.0625 18.8242 18.0195 18.8711 17.9648C19.0742 17.9258 19.2812 17.8398 19.4922 17.707C19.6953 17.5664 19.8281 17.3945 19.8906 17.1914C19.9141 17.1211 19.9297 17.0469 19.9375 16.9688C19.9453 16.8828 19.957 16.8008 19.9727 16.7227C20.0117 16.5195 20.0508 16.3125 20.0898 16.1016C20.1289 15.8906 20.1797 15.6797 20.2422 15.4688C20.2578 15.4297 20.2773 15.3945 20.3008 15.3633C20.3242 15.332 20.3438 15.2969 20.3594 15.2578C20.4062 15.125 20.4336 14.9883 20.4414 14.8477C20.457 14.6992 20.4844 14.5586 20.5234 14.4258C20.5625 14.3242 20.6016 14.2305 20.6406 14.1445C20.6797 14.0508 20.7109 13.957 20.7344 13.8633C20.7578 13.7617 20.7773 13.6641 20.793 13.5703C20.8164 13.4766 20.8555 13.3906 20.9102 13.3125C20.9258 13.1797 20.9414 13.0547 20.957 12.9375C20.9727 12.8203 20.9766 12.6836 20.9688 12.5273C21.0547 12.4258 21.1328 12.3203 21.2031 12.2109C21.2812 12.0938 21.332 11.957 21.3555 11.8008C21.3711 11.7148 21.3672 11.6328 21.3438 11.5547C21.3281 11.4766 21.3203 11.3906 21.3203 11.2969C21.3281 11.0938 21.3438 10.9141 21.3672 10.7578C21.3984 10.5938 21.4219 10.4102 21.4375 10.207C21.375 10.0664 21.2773 9.97266 21.1445 9.92578C21.0195 9.87109 20.8828 9.79688 20.7344 9.70312C20.7109 9.69531 20.6797 9.67969 20.6406 9.65625C20.6016 9.63281 20.5586 9.60938 20.5117 9.58594C20.4727 9.55469 20.4375 9.52344 20.4062 9.49219C20.3828 9.46094 20.3711 9.43359 20.3711 9.41016C20.3789 9.35547 20.4102 9.3125 20.4648 9.28125C20.5273 9.24219 20.5938 9.21875 20.6641 9.21094C20.7422 9.19531 20.8203 9.19141 20.8984 9.19922C20.9766 9.19922 21.043 9.20312 21.0977 9.21094C21.293 9.25 21.4805 9.28906 21.6602 9.32812C21.8398 9.36719 22.0234 9.40234 22.2109 9.43359C22.4062 9.45703 22.6094 9.47266 22.8203 9.48047C23.0391 9.48828 23.2852 9.48047 23.5586 9.45703C23.6602 9.44922 23.7461 9.4375 23.8164 9.42188C23.8945 9.39844 23.9805 9.38281 24.0742 9.375C24.207 9.36719 24.3359 9.35547 24.4609 9.33984C24.5938 9.31641 24.7266 9.3125 24.8594 9.32812C25.1016 9.35156 25.3164 9.35156 25.5039 9.32812C25.6914 9.29688 25.8906 9.29297 26.1016 9.31641C26.2031 9.33203 26.2969 9.36328 26.3828 9.41016C26.4766 9.44922 26.5664 9.49219 26.6523 9.53906C26.7461 9.58594 26.8359 9.62891 26.9219 9.66797C27.0156 9.69922 27.1094 9.71875 27.2031 9.72656C27.3438 9.8125 27.4766 9.92188 27.6016 10.0547C27.7344 10.1875 27.8555 10.3359 27.9648 10.5C28.0508 10.6328 28.1328 10.7852 28.2109 10.957C28.2891 11.1289 28.3477 11.2734 28.3867 11.3906C28.4414 11.5312 28.4648 11.6719 28.457 11.8125C28.4492 11.9453 28.4297 12.0742 28.3984 12.1992C28.3359 12.4258 28.2578 12.6289 28.1641 12.8086C28.0703 12.9883 27.9648 13.1602 27.8477 13.3242C27.7383 13.4805 27.6211 13.6406 27.4961 13.8047C27.3789 13.9609 27.2695 14.125 27.168 14.2969C27.1055 14.3203 27.043 14.3359 26.9805 14.3438C26.9258 14.3438 26.8711 14.3555 26.8164 14.3789C26.7305 14.418 26.6562 14.4766 26.5938 14.5547C26.5312 14.625 26.4492 14.6758 26.3477 14.707C26.3086 14.7227 26.2656 14.7266 26.2188 14.7188C26.1797 14.7109 26.1406 14.7109 26.1016 14.7188C26.0156 14.7422 25.9336 14.7734 25.8555 14.8125C25.7852 14.8438 25.6992 14.8672 25.5977 14.8828ZM24.9062 13.8867C25.0312 13.7305 25.168 13.5859 25.3164 13.4531C25.4648 13.3125 25.582 13.1523 25.668 12.9727C25.707 12.8867 25.7383 12.7852 25.7617 12.668C25.793 12.543 25.8203 12.4258 25.8438 12.3164C25.8828 12.082 25.8867 11.875 25.8555 11.6953C25.8242 11.5156 25.7695 11.3555 25.6914 11.2148C25.6133 11.0742 25.5156 10.9531 25.3984 10.8516C25.2812 10.75 25.1523 10.6602 25.0117 10.582C24.9023 10.5195 24.7891 10.4531 24.6719 10.3828C24.5625 10.3047 24.4258 10.2891 24.2617 10.3359C24.1445 10.4062 24.0469 10.5195 23.9688 10.6758C23.8984 10.832 23.832 10.9766 23.7695 11.1094C23.7461 11.1641 23.7188 11.2188 23.6875 11.2734C23.6641 11.3281 23.6445 11.375 23.6289 11.4141C23.6211 11.4688 23.6211 11.5273 23.6289 11.5898C23.6367 11.6445 23.6328 11.7031 23.6172 11.7656C23.6016 11.8203 23.5625 11.8594 23.5 11.8828C23.4375 11.8984 23.4023 11.9336 23.3945 11.9883C23.3945 12.043 23.4141 12.0938 23.4531 12.1406C23.5 12.1797 23.5234 12.2305 23.5234 12.293C23.5156 12.3867 23.4805 12.4922 23.418 12.6094C23.3633 12.7266 23.3281 12.8477 23.3125 12.9727C23.2969 13.0898 23.2695 13.2031 23.2305 13.3125C23.1992 13.4219 23.1641 13.5312 23.125 13.6406C23.0938 13.75 23.0625 13.8633 23.0312 13.9805C23.0078 14.0898 23 14.2031 23.0078 14.3203C23.1641 14.3516 23.332 14.3633 23.5117 14.3555C23.6914 14.3477 23.8672 14.3242 24.0391 14.2852C24.2109 14.2461 24.3711 14.1953 24.5195 14.1328C24.6758 14.0625 24.8047 13.9805 24.9062 13.8867Z" fill="black"/>
<path d="M4.42274 5.55539L16.0173 1.93211C17.9594 1.32518 20.0406 1.32518 21.9827 1.93211L33.5773 5.55539C34.5046 5.84518 35.3242 6.4053 35.9312 7.16396C36.6231 8.02882 37 9.10341 37 10.211V19.289C37 20.3966 36.6231 21.4712 35.9312 22.336C35.3242 23.0947 34.5046 23.6548 33.5773 23.9446L21.9827 27.5679C20.0406 28.1748 17.9594 28.1748 16.0173 27.5679L4.42274 23.9446C3.49541 23.6548 2.67576 23.0947 2.06884 22.336C1.37695 21.4712 1 20.3966 1 19.289V10.211C1 9.10341 1.37695 8.02882 2.06884 7.16396C2.67576 6.4053 3.49541 5.84518 4.42274 5.55539Z" stroke="black"/>
</svg>
